<?xml version="1.0" encoding="utf-8"?>
<!-- Generator: Adobe Illustrator 19.1.0, SVG Export Plug-In . SVG Version: 6.00 Build 0)  -->
<svg version="1.1" id="Layer_1" xmlns="http://www.w3.org/2000/svg" xmlns:xlink="http://www.w3.org/1999/xlink" x="0px" y="0px"
	 viewBox="0 0 56 56" style="enable-background:new 0 0 56 56;" xml:space="preserve">
<style type="text/css">
	.st0{fill:#E88124;}
</style>
<path class="st0" d="M50,4.2V0H6v4.2H0.1v10.2c0,3.7,2.6,6.8,6.1,7.5c1.2,9.5,8.4,17.1,17.7,18.8v6.6h-15V53H5.2v3h45.6v-3h-3.7
	v-5.8h-15v-6.6c9.3-1.7,16.5-9.3,17.7-18.8c3.5-0.6,6.1-3.8,6.1-7.5V4.2H50z M3,14.4V7.1h3v11.6C4.3,18.1,3,16.4,3,14.4z M44.1,53
	H11.9v-2.8h32.2V53z M29.1,47.3h-2.2V41c0.3,0,0.7,0,1.1,0h0.1c0.4,0,0.7,0,1.1,0V47.3z M47,19.1c0,10.5-8.5,19-19,19h-0.1
	c-10.5,0-19-8.5-19-19V3h38V19.1z M53,14.4c0,2-1.2,3.7-3,4.3V7.1h3V14.4z"/>
</svg>
