<svg xmlns="http://www.w3.org/2000/svg" width="150" height="30" viewBox="0 -5 180 37">
    <path fill="#2a3152" d="M41.74 7.102c-.73 0-1.4.092-1.98.274-.575.178-1.115.425-1.603.738-.48.312-.915.67-1.277 1.063-.098.1-.19.207-.285.313V7.47h-4.877v18.523h4.877v-10.38c0-1.276.336-2.274.994-2.968.66-.696 1.508-1.035 2.58-1.035 1.095 0 1.91.324 2.49.99.586.672.887 1.664.887 2.945v10.447h4.88v-11.68c0-2.17-.59-3.93-1.745-5.23-1.16-1.313-2.825-1.98-4.943-1.98zM59.717 7.237c-1.486 0-2.773.14-3.828.413-1.048.275-2.088.645-3.086 1.098l-.324.148 1.354 3.985.386-.156c.783-.327 1.57-.592 2.33-.79.75-.194 1.623-.29 2.596-.29 1.3 0 2.308.294 2.984.88.63.544.955 1.31.99 2.34-.557-.16-1.13-.295-1.713-.398-.766-.135-1.71-.205-2.805-.205-1.06 0-2.057.122-2.97.366-.93.246-1.743.63-2.42 1.142-.686.516-1.228 1.173-1.61 1.952-.383.78-.576 1.703-.576 2.743v.067c0 .953.19 1.81.562 2.545.364.73.866 1.354 1.48 1.842.606.486 1.324.86 2.128 1.11.795.244 1.647.37 2.537.37 1.4 0 2.613-.262 3.604-.78.66-.35 1.247-.75 1.75-1.204v1.613H67.9V15.12c0-2.47-.682-4.422-2.027-5.8-1.344-1.384-3.414-2.083-6.156-2.083zm-.84 15.326c-.88 0-1.63-.204-2.224-.606-.545-.374-.815-.906-.815-1.626v-.067c0-.724.295-1.276.902-1.697.65-.444 1.58-.67 2.773-.67.756 0 1.485.065 2.16.192.57.11 1.082.244 1.516.394v.74c0 .496-.105.95-.308 1.35-.207.403-.51.758-.88 1.046-.392.295-.854.53-1.38.697-.53.164-1.118.248-1.746.248zM93.026 19.902L88.27 7.47h-5.182l7.555 18.13c-.29.637-.59 1.08-.893 1.308-.314.244-.71.36-1.21.36-.384 0-.755-.06-1.108-.17-.373-.114-.736-.27-1.096-.46l-.36-.192-1.702 3.733.32.17c.643.348 1.318.624 2.012.824.693.196 1.494.298 2.375.298.75 0 1.435-.096 2.032-.286.604-.195 1.17-.508 1.677-.928.5-.42.958-.966 1.36-1.628.39-.644.77-1.444 1.14-2.38l7.26-18.78h-5.077l-4.347 12.432z"
    />
    <path fill="#E88126" d="M124.86 19.985c-.62.623-1.29 1.14-1.984 1.533-.662.38-1.455.572-2.346.572-.723 0-1.39-.14-1.988-.418-.596-.28-1.123-.662-1.56-1.135-.433-.477-.772-1.044-1.015-1.69-.238-.645-.357-1.348-.357-2.083v-.068c0-.71.12-1.396.357-2.047.242-.647.572-1.21.988-1.676.414-.462.914-.838 1.492-1.12.57-.27 1.2-.412 1.88-.412.956 0 1.765.19 2.407.566.674.396 1.314.912 1.918 1.532l.287.295 3.04-3.282-.24-.265c-.854-.95-1.875-1.725-3.02-2.305-1.158-.586-2.63-.883-4.36-.883-1.372 0-2.657.262-3.837.77-1.172.512-2.203 1.215-3.057 2.084-.855.872-1.535 1.914-2.016 3.086-.475 1.17-.72 2.426-.72 3.723v.07c0 1.3.245 2.547.72 3.71.482 1.163 1.16 2.188 2.016 3.05.86.86 1.88 1.55 3.043 2.047 1.16.502 2.448.756 3.815.756 1.78 0 3.285-.33 4.457-.972 1.152-.637 2.197-1.473 3.092-2.487l.252-.275-2.998-2.95-.268.273zM146.528 9.923c-.87-.874-1.924-1.57-3.12-2.067-1.188-.5-2.52-.754-3.93-.754-1.413 0-2.733.262-3.93.77-1.2.512-2.243 1.21-3.114 2.084-.873.87-1.566 1.9-2.066 3.06-.498 1.165-.754 2.427-.754 3.75v.07c0 1.3.248 2.548.732 3.71.492 1.162 1.182 2.19 2.06 3.05.868.86 1.915 1.55 3.112 2.05 1.193.498 2.504.752 3.893.752 1.41 0 2.745-.26 3.954-.772 1.207-.508 2.256-1.208 3.13-2.08.868-.872 1.565-1.9 2.065-3.063.503-1.163.753-2.414.753-3.717v-.068c0-1.32-.25-2.578-.736-3.73-.486-1.15-1.176-2.175-2.05-3.045zm-7.05 12.168c-.718 0-1.39-.138-1.99-.417s-1.136-.666-1.58-1.15c-.44-.49-.796-1.06-1.04-1.697-.25-.635-.377-1.326-.377-2.06v-.07c0-.712.118-1.402.345-2.052.227-.64.56-1.2.988-1.663.43-.463.957-.84 1.564-1.118.602-.278 1.28-.42 2.023-.42.744 0 1.426.142 2.027.42.61.278 1.14.66 1.584 1.138.44.475.794 1.045 1.038 1.69.248.648.375 1.345.375 2.075v.07c0 .71-.113 1.396-.342 2.036-.23.63-.56 1.193-.99 1.67-.433.47-.956.852-1.56 1.133-.605.28-1.297.418-2.06.418zM177.95 8.988c-1.166-1.25-2.81-1.887-4.87-1.887-1.41 0-2.645.31-3.68.92-.856.504-1.62 1.152-2.29 1.93-.477-.772-1.098-1.417-1.877-1.92-.938-.614-2.098-.93-3.443-.93-.7 0-1.357.093-1.938.275-.582.178-1.115.43-1.578.745-.457.31-.87.657-1.223 1.037-.093.098-.177.197-.265.296V7.47h-4.877v18.523h4.877V15.646c0-1.28.316-2.287.943-2.994.62-.7 1.422-1.04 2.45-1.04 1.024 0 1.794.316 2.345.968.563.66.848 1.648.848 2.935v10.48h4.878v-10.38c0-1.323.316-2.335.95-3.003.628-.676 1.425-1.002 2.444-1.002 1.02 0 1.793.317 2.342.97.56.66.85 1.66.85 2.966v10.447h4.87V14.277c.002-2.264-.586-4.043-1.754-5.29z"
    />
    <g fill="#2a3152">
        <path d="M24.24 7.47h4.88v18.523h-4.88z" />
        <circle cx="26.68" cy="3.138" r="2.703" />
    </g>
    <path fill="#E88126" d="M108.41 23.696c0-1.494-1.21-2.703-2.696-2.703-1.496 0-2.71 1.21-2.71 2.703 0 1.488 1.214 2.7 2.71 2.7 1.486 0 2.697-1.21 2.697-2.7z" />
    <path fill="#2a3152" d="M20.19 14.685c-.452-.493-1.005-.924-1.624-1.285-.388-.222-.813-.43-1.256-.62l-.273-.112.247-.16c.21-.136.424-.284.63-.447.456-.346.855-.756 1.19-1.215.334-.46.608-1 .816-1.605.21-.607.317-1.313.317-2.105v-.07c0-1.71-.593-3.167-1.762-4.333C16.962 1.208 14.7.438 11.765.438H.293v25.558h11.83c1.4 0 2.694-.152 3.85-.457 1.17-.305 2.184-.757 3.013-1.342.84-.597 1.497-1.35 1.958-2.24.454-.892.692-1.933.692-3.09v-.07c0-.886-.127-1.67-.378-2.34-.247-.678-.605-1.273-1.068-1.773zM5.175 10.832V4.853H11.23c1.357 0 2.403.262 3.104.787.687.513 1.02 1.212 1.02 2.14v.07c0 1.062-.38 1.826-1.165 2.34-.81.534-1.914.8-3.287.8H5.175v-.158zm11.578 7.57c0 1.06-.388 1.833-1.176 2.36-.807.54-1.95.814-3.385.814H5.175v-6.354h6.695c1.67 0 2.926.284 3.724.835.776.535 1.16 1.28 1.16 2.273v.072zM81.3 7.136c-1.653-.07-3.052.328-4.153 1.194-.684.53-1.273 1.182-1.756 1.943V7.47h-4.878v18.523h4.88v-7.14c0-1.122.138-2.114.42-2.96.27-.824.66-1.517 1.153-2.058.498-.538 1.094-.942 1.78-1.212.687-.27 1.462-.41 2.306-.41h.603V7.152l-.352-.014z" />
</svg>
