<?xml version="1.0" encoding="utf-8"?>
<!-- Generator: Adobe Illustrator 18.1.0, SVG Export Plug-In . SVG Version: 6.00 Build 0)  -->
<svg version="1.1" id="Layer_1" xmlns="http://www.w3.org/2000/svg" xmlns:xlink="http://www.w3.org/1999/xlink" x="0px" y="0px"
	 viewBox="-349 -50 300 300" enable-background="new -349 -50 300 300" xml:space="preserve">
<g>
	<g>
		<path fill="#FFFFFF" d="M-83.7,23.6l-0.7-1c-4.9-7.2-10.5-14.1-16.9-20.4C-148-44.5-220.1-50.7-273.5-16.4c8-1.7,14.2-2.4,41.5,4
			c2-1.2,16.5-2.7,26.2-0.2c21,5.4,23.3,6.9,30.3,9.6c20,7.8,23,13.7,59,25.6c11.5,3.8,17.6,2.4,17.4,2.8c-0.7,2.2-6.9,3.6-8.9,3.9
			c-1.9,0.4-5.2,1-10.6,0.9c-14.1-0.2-24.2-3.4-55.1-11.5c0,0,7.8,3.3,14.9,5.8c5.6,1.8,6.9,2.3,15.7,5.7c18.9,7.2,22.9,6.3,23.7,7
			c-0.5,2-7.5,2.8-16.4,3.1c-6.5,0.2-3.9,0.2-12-0.6c-14.3-1.6-19.2-4.5-26.5-5.7c0,0,0.3,0.4,0.6,0.7l0.8,1c5,5.4,9.7,10.7,9,18.9
			c0,0.2-3,11.6,14.1,29.8c0.3,0.2,0.5,0.5,0.8,0.7c1.5,1.5,2.6,3.1,3.6,3.9c1.7,1.8,2.5,3.3,2.5,5.1c0,3.1-2.7,6.9-8.9,12.5
			c-3.8,3.5-21.6,11.6-31.7,9c-3-0.8-6.9-2.5-11.7-4.6c-5.7-2.5-12.9-5.6-21.1-8.2l-4.9-1.6c-11.7-3.8-15.9-3.4-22.7-3.4
			c-7.5,0-12,7-12,7s-7.9,4.8-9.7,6c-1.5,1-8.4,8.1-8.9,11.3c-0.1,0.5,0,0.7,0.1,0.9c0.7,0.9,1.7,1.9,2.7,3c1.5,1.6,3.3,3.5,4.5,5.4
			c2,3.4,2.6,5.5,8.4,12.4l0.1,0.2c0.1,0.2,0.8,15.1,6.6,22.5c5.2,6.8,12.8,18.2,12.8,18.2s2.6,4.3,1.1,5.8c-2.2,2.3-4.3,9,2.1,15.4
			c0.5,0.4,0.9,0.9,1.5,1.3c5.9,4.7,11.6,3.4,15.7,0.9c1.1-0.6,5.7,1.9,7.1,2.8c5.7,3.8,15.8,3.9,36.1,7.9
			c0.3,0,30.3,15.8,69.2-15.9c1.8-1.6,3.5-3.3,5.3-5c26.1-26.2,40.5-60.9,40.5-97.8C-60.7,72.4-68.7,46.1-83.7,23.6z M-247.7,145.8
			c17.7-1.2,11.3,15.6,11.2,15.6l3.4,6.3C-245.7,160.7-247.7,145.8-247.7,145.8z"/>
		<path fill="#2A3152" d="M-247.7,145.8c0,0,2,15,14.6,21.9l-3.4-6.3C-236.4,161.4-230,144.6-247.7,145.8z"/>
	</g>
	<g>
		<path fill="#FFFFFF" d="M-174,60.9c0,0-4.4-14.4-17.9-19.3l4.3,5.6C-187.6,47.3-191.3,64.9-174,60.9z"/>
		<path fill="#2A3152" d="M-199-49.9c-82.8,0-149.9,67.1-149.9,149.9c0,82.8,67.1,149.9,149.9,149.9c82.8,0,149.9-67.1,149.9-149.9
			C-49.1,17.2-116.2-49.9-199-49.9z M-101.2,197.8c-1.8,1.7-3.5,3.4-5.3,5c-38.9,31.7-68.9,15.9-69.2,15.9
			c-20.3-4.1-30.4-4.1-36.1-7.9c-1.4-1-6-3.4-7.1-2.8c-4.2,2.5-9.9,3.7-15.7-0.9c-0.5-0.4-1-0.9-1.5-1.3c-6.5-6.4-4.3-13.1-2.1-15.4
			c1.5-1.5-1.1-5.8-1.1-5.8s-7.6-11.3-12.8-18.2c-5.7-7.5-6.5-22.3-6.6-22.5l-0.1-0.2c-5.8-6.9-6.4-9-8.4-12.4c-1.2-2-3-3.8-4.5-5.4
			c-1-1-2-2-2.7-3c-0.2-0.2-0.2-0.5-0.1-0.9c0.5-3.2,7.4-10.3,8.9-11.3c1.8-1.2,9.7-6,9.7-6s4.4-7,12-7c6.8,0,10.9-0.4,22.7,3.4
			l4.9,1.6c8.2,2.6,15.4,5.7,21.1,8.2c4.9,2.1,8.7,3.8,11.7,4.6c10.1,2.7,28-5.5,31.7-9c6.2-5.6,8.8-9.4,8.9-12.5
			c0-1.7-0.7-3.2-2.5-5.1c-0.9-0.8-2.1-2.4-3.6-3.9c-0.2-0.2-0.5-0.5-0.8-0.7c-17.1-18.2-14.2-29.6-14.1-29.8c0.7-8.2-4-13.4-9-18.9
			l-0.8-1c-0.3-0.2-0.6-0.7-0.6-0.7c7.3,1.2,12.3,4.1,26.5,5.7c8.1,0.9,5.5,0.8,12,0.6c8.9-0.3,16-1.1,16.4-3.1
			c-0.9-0.7-4.8,0.2-23.7-7c-8.8-3.4-10.1-3.9-15.7-5.7c-7.2-2.4-14.9-5.8-14.9-5.8c30.9,8.1,41,11.3,55.1,11.5
			c5.5,0.1,8.7-0.6,10.6-0.9c2-0.4,8.2-1.8,8.9-3.9c0.2-0.4-6,1-17.4-2.8c-36-11.9-39.1-17.9-59-25.6c-7-2.7-9.2-4.2-30.3-9.6
			c-9.6-2.5-24.2-1.1-26.2,0.2c-27.3-6.4-33.5-5.7-41.5-4C-220.1-50.7-148-44.5-101.2,2.2c6.3,6.3,11.9,13.2,16.9,20.4l0.7,1
			c15,22.4,23,48.8,23,76.4C-60.7,136.9-75.1,171.7-101.2,197.8z M-191.9,41.7c13.6,4.8,17.9,19.3,17.9,19.3
			c-17.2,3.9-13.6-13.7-13.6-13.7L-191.9,41.7z"/>
	</g>
</g>
</svg>
