<?xml version="1.0" encoding="utf-8"?>
<!-- Generator: Adobe Illustrator 19.1.0, SVG Export Plug-In . SVG Version: 6.00 Build 0)  -->
<svg version="1.1" id="Layer_1" xmlns="http://www.w3.org/2000/svg" xmlns:xlink="http://www.w3.org/1999/xlink" x="0px" y="0px"
	 viewBox="0 0 56 56" style="enable-background:new 0 0 56 56;" xml:space="preserve">
<style type="text/css">
	.st0{fill:white;}
</style>
<g>
	<path class="st0" d="M56,0H0v13h8.6v42.3h1.5c0.3,0,0.3,0,2.8-1.1c0.6-0.3,1.2-0.5,1.7-0.7l4.2,1.7H19c0.3,0,0.3,0,1.2-0.4
		c0.9-0.4,2.4-1,3.3-1.4c0.7,0.3,1.8,0.7,2.6,1.1c1.5,0.6,1.5,0.6,1.8,0.6c0.3,0,0.3,0,2.8-1.1c0.6-0.3,1.2-0.5,1.7-0.7
		c0.4,0.2,1,0.4,1.7,0.7c2.5,1.1,2.5,1.1,2.8,1.1c0.3,0,0.3,0,2.7-1c0.7-0.3,1.3-0.6,1.8-0.7l6,2.5V13H56V0z M44.4,51.5l-2.7-1.1
		h-0.3c-0.3,0-0.3,0-2.9,1.1c-0.6,0.2-1.1,0.5-1.5,0.6c-0.4-0.2-1-0.4-1.7-0.7c-2.5-1.1-2.5-1.1-2.8-1.1c-0.3,0-0.3,0-2.8,1.1
		c-0.6,0.3-1.2,0.5-1.7,0.7l-0.7-0.3c-3.5-1.5-3.5-1.5-3.8-1.5c-0.3,0-0.3,0-4.4,1.7l0,0l-4.2-1.7h-0.3c-0.3,0-0.3,0-2.8,1.1
		c-0.1,0-0.1,0-0.2,0.1V13h32.8V51.5z M53,10H3V3h50V10z"/>
	<rect x="15.6" y="17.6" class="st0" width="24.9" height="3"/>
	<rect x="15.6" y="23" class="st0" width="24.9" height="3"/>
	<path class="st0" d="M41.1,30.5H14.9v14.1h26.1V30.5z M38.1,41.5H17.9v-8.1h20.1V41.5z"/>
</g>
</svg>
