<?xml version="1.0" encoding="utf-8"?>
<!-- Generator: Adobe Illustrator 19.1.0, SVG Export Plug-In . SVG Version: 6.00 Build 0)  -->
<svg version="1.1" id="Layer_1" xmlns="http://www.w3.org/2000/svg" xmlns:xlink="http://www.w3.org/1999/xlink" x="0px" y="0px"
	 viewBox="0 0 56 56" style="enable-background:new 0 0 56 56;" xml:space="preserve">
<style type="text/css">
	.st0{fill:#E88124;}
</style>
<path class="st0" d="M47.6,9.4l-1.9,2l4.2,4h-4.7c-6.7,0-12.5,3.6-15.7,9.1V5.3l4.1,4.2l2-1.9L28.1,0l-7.5,7.7l2,1.9l4.1-4.2v27.7
	c-3.3-5.4-9.1-9.1-15.7-9.1H6.1l4.2-4l-1.9-2l-7.7,7.5l7.6,7.3l1.9-2l-4.2-4h4.9c8.7,0,15.7,7.3,15.7,16.3V56h2.8V34.4
	c0-9,7.1-16.3,15.7-16.3H50l-4.2,4l1.9,2l7.6-7.3L47.6,9.4z"/>
</svg>
