<?xml version="1.0" encoding="utf-8"?>
<!-- Generator: Adobe Illustrator 19.1.0, SVG Export Plug-In . SVG Version: 6.00 Build 0)  -->
<svg version="1.1" id="Layer_1" xmlns="http://www.w3.org/2000/svg" xmlns:xlink="http://www.w3.org/1999/xlink" x="0px" y="0px"
	 viewBox="0 0 56 56" style="enable-background:new 0 0 56 56;" xml:space="preserve">
<style type="text/css">
	.st0{fill:white;}
</style>
<g>
	<path class="st0" d="M28,0C12.6,0,0,12.6,0,28s12.6,28,28,28s28-12.6,28-28S43.4,0,28,0z M28,53C14.2,53,3,41.8,3,28S14.2,3,28,3
		s25,11.2,25,25S41.8,53,28,53z"/>
	<path class="st0" d="M27.6,13.8c-2.5,0-4.5,0.7-6.1,2c-1.6,1.3-2.4,3-2.3,5.2l0.1,0.1h3.9c0-1.3,0.4-2.3,1.3-2.9c0.9-0.7,2-1,3.2-1
		c1.4,0,2.6,0.4,3.3,1.2c0.8,0.8,1.2,1.9,1.2,3.3c0,1.2-0.3,2.2-0.9,3.1c-0.6,0.8-1.6,2.1-2.9,3.6c-1.4,1.2-2.3,2.2-2.6,3
		c-0.3,0.8-0.5,2.1-0.5,4.1h4.1c0-1.2,0.1-2.1,0.2-2.7s0.6-1.2,1.4-2c1.6-1.5,2.9-3,3.9-4.4c1-1.4,1.5-3,1.5-4.8
		c0-2.4-0.8-4.3-2.3-5.7C32.4,14.5,30.3,13.8,27.6,13.8z"/>
	<ellipse class="st0" cx="27.2" cy="41.5" rx="2.5" ry="2.5"/>
</g>
</svg>
