<?xml version="1.0" encoding="utf-8"?>
<!-- Generator: Adobe Illustrator 19.1.0, SVG Export Plug-In . SVG Version: 6.00 Build 0)  -->
<svg version="1.1" id="Layer_1" xmlns="http://www.w3.org/2000/svg" xmlns:xlink="http://www.w3.org/1999/xlink" x="0px" y="0px"
	 viewBox="0 0 56 56" style="enable-background:new 0 0 56 56;" xml:space="preserve">
<style type="text/css">
	.st0{fill:white;}
</style>
<g>
	<path class="st0" d="M40,22.1c1.3-0.6,2.3-1.8,2.4-3.3c0.2-1.3-0.3-2.6-1.2-3.6C41,6.8,35,0,27.7,0c-7.3,0-13.2,6.7-13.5,15
		c-1.1,0.9-1.6,2.3-1.5,3.8c0.2,1.6,1.3,2.9,2.7,3.5c2.2,5.7,7.1,9.4,12.3,9.4C32.9,31.6,37.8,27.8,40,22.1z M27.7,3
		c4.9,0,9,4,10.2,9.5c-4.1-1-6.4-5.2-6.4-5.3l-1.4-2.8l-1.3,2.8c-2.3,5.1-8.5,5.8-11.4,5.8C18.3,7.4,22.6,3,27.7,3z M27.7,28.6
		c-4.1,0-8-3.3-9.7-8.1l-0.3-0.9l-0.9-0.1c-0.5-0.1-1-0.5-1-1.1c-0.1-0.5,0.2-1,0.7-1.3l0.8-0.4l0-0.6c3,0,9.4-0.6,13-5.4
		c1.5,1.9,4.2,4.4,8,4.9c0,0,0,0,0,0l0,1.1l0.7,0.5c0.4,0.3,0.6,0.7,0.6,1.2c-0.1,0.5-0.4,0.9-0.9,1l-0.8,0.2l-0.3,0.8
		C35.8,25.3,31.9,28.6,27.7,28.6z"/>
	<path class="st0" d="M22.1,34.8c-8.3,2.6-13.4,9.4-13.4,17.8V56h3v-3.4c0-7.4,4.7-13.2,12.3-15.2l1.1-0.3v-4.9h-3V34.8z"/>
	<path class="st0" d="M33.9,34.8v-2.6h-3v4.9l1.1,0.3c7.6,2,12.3,7.8,12.3,15.2V56h3v-3.4C47.4,44.1,42.3,37.4,33.9,34.8z"/>
</g>
</svg>
