<?xml version="1.0" encoding="utf-8"?>
<!-- Generator: Adobe Illustrator 19.1.0, SVG Export Plug-In . SVG Version: 6.00 Build 0)  -->
<svg version="1.1" id="Layer_1" xmlns="http://www.w3.org/2000/svg" xmlns:xlink="http://www.w3.org/1999/xlink" x="0px" y="0px"
	 viewBox="0 0 56 56" style="enable-background:new 0 0 56 56;" xml:space="preserve">
<style type="text/css">
	.st0{fill:#E88124;}
</style>
<g>
	<path class="st0" d="M51.8,21h-4.2V6.9c0-3.8-3.1-6.9-6.8-6.9H15.2c-3.8,0-6.8,3.1-6.8,6.9V21H4.2C1.9,21,0,22.9,0,25.2V56h56V25.2
		C56,22.9,54.1,21,51.8,21z M11.4,6.9c0-2.2,1.7-3.9,3.8-3.9h25.6c2.1,0,3.8,1.8,3.8,3.9V21H11.4V6.9z M53,53H3V25.2
		C3,24.6,3.5,24,4.2,24h47.6c0.7,0,1.2,0.5,1.2,1.2V53z"/>
	<polygon class="st0" points="24.8,42.1 19.8,37 17.6,39 24.8,46.4 38.4,32.5 36.2,30.4 	"/>
</g>
</svg>
