<?xml version="1.0" encoding="utf-8"?>
<!-- Generator: Adobe Illustrator 19.1.0, SVG Export Plug-In . SVG Version: 6.00 Build 0)  -->
<svg version="1.1" id="Layer_1" xmlns="http://www.w3.org/2000/svg" xmlns:xlink="http://www.w3.org/1999/xlink" x="0px" y="0px"
	 viewBox="0 0 56 56" style="enable-background:new 0 0 56 56;" xml:space="preserve">
<style type="text/css">
	.st0{fill:#E98025;}
</style>
<g>
	<g>
		<g>
			<path class="st0" d="M47.6,40.9h-3V16.4c0-1.4,1.2-2.6,2.6-2.6h5.2L41.8,3.2L31.2,13.8h5.2c1.4,0,2.6,1.2,2.6,2.6v24.6h-3V16.8
				h-5.8c-1,0-2-0.6-2.4-1.6c-0.4-1-0.2-2.1,0.6-2.8L40,0.8c1-1,2.7-1,3.6,0l11.6,11.6c0.7,0.7,1,1.8,0.6,2.8
				c-0.4,1-1.3,1.6-2.4,1.6h-5.8V40.9z"/>
		</g>
	</g>
	<g>
		<g>
			<path class="st0" d="M14.2,55.9c-0.7,0-1.3-0.2-1.8-0.7L0.8,43.6c-0.7-0.7-1-1.8-0.6-2.8c0.4-1,1.3-1.6,2.4-1.6h5.8V15.1h3v24.6
				c0,1.4-1.2,2.6-2.6,2.6H3.6l10.6,10.6l10.6-10.6h-5.2c-1.4,0-2.6-1.2-2.6-2.6V15.1h3v24.1h5.8c1,0,2,0.6,2.4,1.6
				c0.4,1,0.2,2.1-0.6,2.8L16,55.2C15.5,55.7,14.9,55.9,14.2,55.9z"/>
		</g>
	</g>
</g>
</svg>
