<?xml version="1.0" encoding="utf-8"?>
<!-- Generator: Adobe Illustrator 18.1.0, SVG Export Plug-In . SVG Version: 6.00 Build 0)  -->
<svg version="1.1" id="Layer_1" xmlns="http://www.w3.org/2000/svg" xmlns:xlink="http://www.w3.org/1999/xlink" x="0px" y="0px"
	 viewBox="-282 374 46 46" enable-background="new -282 374 46 46" xml:space="preserve">
<path fill="#FFFFFF" d="M-242.9,380.9c-8.9-8.9-23.3-8.9-32.1,0c-8.9,8.9-8.9,23.3,0,32.1c8.9,8.9,23.3,8.9,32.1,0
	C-234.1,404.2-234.1,389.8-242.9,380.9z"/>
<g>
	<path fill="#293152" d="M-265.9,403.5c0,0,0.3,2.1,2.1,3.1l-0.5-0.9C-264.3,405.7-263.4,403.3-265.9,403.5z"/>
	<path fill="#293152" d="M-242.7,380.7c-9-9-23.6-9-32.5,0c-9,9-9,23.6,0,32.5c9,9,23.6,9,32.5,0
		C-233.8,404.3-233.8,389.7-242.7,380.7z M-245.1,410.9c-0.3,0.2-0.5,0.5-0.8,0.7c-5.5,4.5-9.8,2.3-9.8,2.3
		c-2.9-0.6-4.3-0.6-5.1-1.1c-0.2-0.1-0.9-0.5-1-0.4c-0.6,0.4-1.4,0.5-2.2-0.1c-0.1-0.1-0.1-0.1-0.2-0.2c-0.9-0.9-0.6-1.9-0.3-2.2
		c0.2-0.2-0.2-0.8-0.2-0.8s-1.1-1.6-1.8-2.6c-0.8-1.1-0.9-3.2-0.9-3.2l0,0c-0.8-1-0.9-1.3-1.2-1.8c-0.2-0.3-0.4-0.5-0.6-0.8
		c-0.1-0.2-0.3-0.3-0.4-0.4c0,0,0-0.1,0-0.1c0.1-0.5,1.1-1.5,1.3-1.6c0.3-0.2,1.4-0.8,1.4-0.8s0.6-1,1.7-1c1,0,1.6-0.1,3.2,0.5
		l0.7,0.2c1.2,0.4,2.2,0.8,3,1.2c0.7,0.3,1.2,0.5,1.7,0.6c1.4,0.4,4-0.8,4.5-1.3c0.9-0.8,1.3-1.3,1.3-1.8c0-0.2-0.1-0.5-0.3-0.7
		c-0.1-0.1-0.3-0.3-0.5-0.6c0,0-0.1-0.1-0.1-0.1c-2.4-2.6-2-4.2-2-4.2c0.1-1.2-0.6-1.9-1.3-2.7l-0.1-0.1c0,0-0.1-0.1-0.1-0.1
		c1,0.2,1.7,0.6,3.8,0.8c1.2,0.1,0.8,0.1,1.7,0.1c1.3,0,2.3-0.2,2.3-0.4c-0.1-0.1-0.7,0-3.4-1c-1.2-0.5-1.4-0.5-2.2-0.8
		c-1-0.3-2.1-0.8-2.1-0.8c4.4,1.1,5.8,1.6,7.8,1.6c0.8,0,1.2-0.1,1.5-0.1c0.3-0.1,1.2-0.3,1.3-0.6c0-0.1-0.8,0.1-2.5-0.4
		c-5.1-1.7-5.6-2.5-8.4-3.6c-1-0.4-1.3-0.6-4.3-1.4c-1.4-0.4-3.4-0.2-3.7,0c-3.9-0.9-4.8-0.8-5.9-0.6c7.6-4.9,17.8-4,24.5,2.7
		c0.9,0.9,1.7,1.9,2.4,2.9l0.1,0.1c2.1,3.2,3.3,6.9,3.3,10.8C-239.4,402.2-241.4,407.2-245.1,410.9z M-258,388.7
		c1.9,0.7,2.5,2.7,2.5,2.7c-2.4,0.6-1.9-1.9-1.9-1.9L-258,388.7z"/>
</g>
</svg>
