<?xml version="1.0" encoding="utf-8"?>
<!-- Generator: Adobe Illustrator 14.0.0, SVG Export Plug-In . SVG Version: 6.00 Build 43363)  -->
<!DOCTYPE svg PUBLIC "-//W3C//DTD SVG 1.1//EN" "http://www.w3.org/Graphics/SVG/1.1/DTD/svg11.dtd">
<svg version="1.1" id="Layer_1" xmlns="http://www.w3.org/2000/svg" xmlns:xlink="http://www.w3.org/1999/xlink" x="0px" y="0px"
	 width="238px" height="55px" viewBox="0 0 238 55" enable-background="new 0 0 238 55" xml:space="preserve">
<g>
	<g>
		<g>
			<path fill="#FFFFFF" d="M103.224,11.988c-0.71,0-1.364,0.089-1.931,0.267c-0.561,0.174-1.088,0.415-1.564,0.721
				c-0.469,0.304-0.892,0.654-1.247,1.039c-0.094,0.096-0.184,0.2-0.276,0.305v-1.972h-4.759v18.074h4.759V20.293
				c0-1.245,0.326-2.219,0.969-2.896c0.644-0.68,1.472-1.009,2.52-1.009c1.067,0,1.862,0.314,2.428,0.966
				c0.572,0.655,0.865,1.621,0.865,2.873v10.194h4.762V19.023c0-2.118-0.574-3.836-1.703-5.103
				C106.915,12.64,105.291,11.988,103.224,11.988z"/>
			<path fill="#FFFFFF" d="M120.765,12.12c-1.451,0-2.706,0.135-3.736,0.403c-1.021,0.269-2.037,0.629-3.009,1.071l-0.315,0.146
				l1.321,3.89l0.377-0.156c0.764-0.319,1.532-0.577,2.274-0.771c0.731-0.189,1.582-0.283,2.531-0.283
				c1.269,0,2.252,0.287,2.912,0.86c0.614,0.53,0.933,1.275,0.965,2.282c-0.541-0.156-1.101-0.286-1.67-0.388
				c-0.748-0.134-1.668-0.202-2.737-0.202c-1.032,0-2.007,0.119-2.896,0.356c-0.909,0.24-1.702,0.616-2.362,1.114
				c-0.667,0.504-1.198,1.145-1.57,1.905c-0.374,0.762-0.563,1.661-0.563,2.676v0.066c0,0.929,0.184,1.768,0.548,2.483
				c0.355,0.713,0.845,1.319,1.444,1.797c0.591,0.475,1.292,0.841,2.077,1.083c0.774,0.238,1.606,0.361,2.476,0.361
				c1.365,0,2.547-0.256,3.516-0.763c0.642-0.34,1.216-0.729,1.707-1.174v1.575h4.695V19.813c0-2.409-0.664-4.315-1.978-5.66
				C125.46,12.802,123.439,12.12,120.765,12.12z M119.945,27.073c-0.86,0-1.591-0.2-2.169-0.592
				c-0.533-0.365-0.795-0.885-0.795-1.586v-0.066c0-0.706,0.289-1.247,0.88-1.656c0.634-0.434,1.543-0.653,2.706-0.653
				c0.736,0,1.449,0.063,2.107,0.187c0.556,0.109,1.055,0.237,1.479,0.385v0.721c0,0.485-0.1,0.929-0.298,1.317
				c-0.202,0.395-0.497,0.74-0.858,1.022c-0.383,0.287-0.833,0.515-1.349,0.679C121.132,26.991,120.557,27.073,119.945,27.073z"/>
			<path fill="#FFFFFF" d="M153.266,24.479l-4.642-12.131h-5.058l7.373,17.688c-0.285,0.622-0.575,1.054-0.871,1.277
				c-0.308,0.236-0.692,0.35-1.182,0.35c-0.373,0-0.736-0.058-1.082-0.164c-0.362-0.112-0.716-0.265-1.068-0.449l-0.354-0.188
				l-1.658,3.645l0.313,0.166c0.625,0.34,1.287,0.607,1.96,0.804c0.678,0.191,1.459,0.29,2.318,0.29c0.73,0,1.399-0.093,1.983-0.278
				c0.59-0.191,1.14-0.496,1.637-0.906c0.487-0.41,0.936-0.941,1.328-1.587c0.38-0.628,0.752-1.409,1.11-2.323l7.084-18.323h-4.953
				L153.266,24.479z"/>
			<path fill="#E88024" d="M184.326,24.558c-0.606,0.609-1.261,1.113-1.937,1.497c-0.647,0.37-1.418,0.56-2.289,0.56
				c-0.705,0-1.356-0.137-1.94-0.408c-0.583-0.274-1.096-0.646-1.52-1.108c-0.424-0.464-0.756-1.018-0.992-1.648
				c-0.232-0.631-0.348-1.315-0.348-2.031v-0.067c0-0.692,0.115-1.363,0.348-1.999c0.236-0.631,0.561-1.179,0.966-1.633
				c0.402-0.45,0.89-0.818,1.456-1.092c0.556-0.267,1.172-0.403,1.832-0.403c0.934,0,1.724,0.186,2.35,0.553
				c0.659,0.385,1.282,0.89,1.871,1.495l0.282,0.288l2.968-3.203l-0.235-0.259c-0.835-0.927-1.831-1.683-2.946-2.248
				c-1.132-0.571-2.565-0.861-4.254-0.861c-1.34,0-2.593,0.255-3.744,0.752c-1.144,0.499-2.15,1.185-2.984,2.033
				c-0.834,0.852-1.495,1.867-1.964,3.011c-0.465,1.142-0.704,2.367-0.704,3.634v0.066c0,1.269,0.239,2.485,0.704,3.621
				c0.47,1.135,1.13,2.135,1.964,2.976c0.839,0.84,1.837,1.51,2.97,1.997c1.134,0.49,2.389,0.737,3.724,0.737
				c1.74,0,3.206-0.321,4.35-0.948c1.124-0.62,2.144-1.438,3.017-2.427l0.245-0.268l-2.925-2.878L184.326,24.558z"/>
			<path fill="#E88024" d="M205.468,14.741c-0.85-0.854-1.876-1.533-3.043-2.018c-1.162-0.488-2.458-0.735-3.836-0.735
				c-1.379,0-2.666,0.255-3.834,0.751c-1.171,0.5-2.188,1.182-3.038,2.034c-0.853,0.85-1.527,1.854-2.016,2.986
				c-0.487,1.136-0.736,2.366-0.736,3.658v0.066c0,1.269,0.242,2.487,0.715,3.621c0.478,1.135,1.152,2.138,2.008,2.976
				c0.85,0.841,1.87,1.511,3.038,2.002c1.164,0.485,2.444,0.732,3.798,0.732c1.374,0,2.676-0.253,3.856-0.753
				c1.179-0.496,2.201-1.18,3.054-2.029c0.848-0.852,1.529-1.855,2.016-2.99c0.492-1.135,0.734-2.355,0.734-3.625v-0.067
				c0-1.29-0.242-2.516-0.716-3.641C206.99,16.591,206.321,15.589,205.468,14.741z M198.589,26.614
				c-0.701,0-1.354-0.137-1.942-0.408c-0.586-0.274-1.106-0.651-1.543-1.125c-0.427-0.477-0.774-1.032-1.015-1.653
				c-0.242-0.62-0.367-1.295-0.367-2.01v-0.067c0-0.696,0.115-1.37,0.337-2.004c0.221-0.626,0.548-1.17,0.964-1.622
				c0.42-0.453,0.933-0.821,1.527-1.094c0.585-0.271,1.251-0.407,1.974-0.407c0.726,0,1.393,0.137,1.978,0.407
				c0.597,0.272,1.114,0.646,1.547,1.111c0.427,0.464,0.773,1.019,1.012,1.647c0.242,0.635,0.366,1.314,0.366,2.028v0.066
				c0,0.694-0.111,1.363-0.334,1.987c-0.227,0.614-0.548,1.162-0.967,1.628c-0.423,0.461-0.934,0.83-1.521,1.106
				C200.01,26.478,199.336,26.614,198.589,26.614z"/>
			<path fill="#E88024" d="M236.126,13.828c-1.139-1.22-2.743-1.84-4.751-1.84c-1.374,0-2.58,0.301-3.591,0.896
				c-0.835,0.491-1.581,1.124-2.234,1.884c-0.465-0.753-1.071-1.382-1.832-1.872c-0.913-0.602-2.047-0.907-3.359-0.907
				c-0.685,0-1.324,0.089-1.891,0.267c-0.567,0.174-1.088,0.421-1.539,0.728c-0.445,0.301-0.85,0.641-1.192,1.012
				c-0.093,0.096-0.174,0.193-0.259,0.289v-1.936h-4.759v18.074h4.759V20.323c0-1.247,0.308-2.23,0.918-2.92
				c0.606-0.683,1.389-1.015,2.391-1.015c1.001,0,1.753,0.31,2.287,0.943c0.551,0.645,0.829,1.61,0.829,2.864v10.226h4.759V20.293
				c0-1.289,0.308-2.277,0.925-2.929c0.615-0.659,1.393-0.976,2.386-0.976c0.997,0,1.751,0.31,2.287,0.943
				c0.545,0.645,0.826,1.622,0.826,2.896v10.194h4.754V18.989C237.839,16.779,237.265,15.045,236.126,13.828z"/>
			<g>
				<rect x="86.149" y="12.348" fill="#FFFFFF" width="4.764" height="18.074"/>
				<path fill="#FFFFFF" d="M91.167,8.12c0-1.456-1.181-2.638-2.64-2.638c-1.456,0-2.633,1.182-2.633,2.638
					c0,1.455,1.177,2.636,2.633,2.636C89.986,10.756,91.167,9.575,91.167,8.12z"/>
			</g>
			<path fill="#E88024" d="M168.276,28.181c0-1.459-1.179-2.639-2.633-2.639c-1.457,0-2.641,1.18-2.641,2.639
				c0,1.451,1.184,2.635,2.641,2.635C167.098,30.815,168.276,29.632,168.276,28.181z"/>
			<path fill="#FFFFFF" d="M82.199,19.388c-0.441-0.482-0.98-0.903-1.584-1.255c-0.379-0.216-0.793-0.418-1.227-0.604l-0.266-0.111
				l0.241-0.157c0.206-0.132,0.413-0.277,0.614-0.435c0.446-0.339,0.836-0.739,1.162-1.188c0.327-0.446,0.595-0.975,0.798-1.565
				c0.205-0.593,0.309-1.281,0.309-2.054V11.95c0-1.668-0.577-3.092-1.718-4.229c-1.477-1.486-3.683-2.239-6.546-2.239H62.785
				v24.939h11.542c1.366,0,2.628-0.149,3.756-0.446c1.142-0.298,2.13-0.737,2.94-1.31c0.819-0.582,1.46-1.316,1.911-2.186
				c0.442-0.869,0.674-1.885,0.674-3.015v-0.068c0-0.863-0.123-1.631-0.367-2.283C83,20.456,82.65,19.874,82.199,19.388z
				 M67.548,15.628V9.944v-0.15H67.7h5.757c1.323,0,2.345,0.255,3.028,0.768c0.67,0.5,0.994,1.182,0.994,2.085v0.069
				c0,1.038-0.37,1.783-1.136,2.284c-0.789,0.522-1.866,0.781-3.206,0.781H67.7h-0.152V15.628z M78.845,23.015
				c0,1.034-0.378,1.789-1.148,2.303c-0.787,0.527-1.903,0.795-3.302,0.795H67.7h-0.152v-0.149v-5.896v-0.155H67.7h6.382
				c1.629,0,2.854,0.276,3.632,0.814c0.757,0.522,1.131,1.249,1.131,2.217V23.015z"/>
			<path fill="#FFFFFF" d="M141.823,12.021c-1.613-0.069-2.979,0.32-4.052,1.165c-0.668,0.519-1.242,1.153-1.714,1.896v-2.734
				h-4.761v18.074h4.761v-6.969c0-1.094,0.135-2.062,0.408-2.885c0.265-0.805,0.644-1.481,1.127-2.009
				c0.487-0.524,1.068-0.922,1.736-1.184c0.671-0.264,1.428-0.399,2.252-0.399h0.586v-4.94L141.823,12.021z"/>
		</g>
		<g>
			<path fill="#FFFFFF" d="M63.021,45.804l1.242-0.114l-0.011,0.327c0,0.368,0.076,0.701,0.248,1.006
				c0.168,0.303,0.446,0.539,0.832,0.703c0.388,0.169,0.851,0.25,1.384,0.25c0.759,0,1.339-0.166,1.736-0.498
				c0.401-0.331,0.597-0.71,0.597-1.139c0-0.297-0.103-0.567-0.314-0.811c-0.218-0.246-0.803-0.571-1.766-0.986
				c-0.749-0.322-1.251-0.568-1.524-0.742c-0.423-0.279-0.742-0.584-0.944-0.914c-0.201-0.328-0.303-0.704-0.303-1.129
				c0-0.486,0.131-0.923,0.398-1.314c0.272-0.394,0.659-0.692,1.175-0.899c0.512-0.206,1.094-0.313,1.741-0.313
				c0.769,0,1.42,0.13,1.95,0.39c0.528,0.259,0.913,0.604,1.152,1.033c0.242,0.432,0.363,0.843,0.363,1.234
				c0,0.04-0.004,0.104-0.01,0.195l-1.219,0.094c0-0.264-0.025-0.474-0.072-0.622c-0.088-0.264-0.224-0.488-0.402-0.671
				c-0.18-0.177-0.432-0.323-0.744-0.432c-0.316-0.109-0.671-0.168-1.067-0.168c-0.689,0-1.223,0.158-1.607,0.468
				c-0.298,0.236-0.438,0.552-0.438,0.942c0,0.233,0.06,0.439,0.178,0.623c0.122,0.185,0.34,0.363,0.654,0.541
				c0.224,0.125,0.76,0.371,1.597,0.741c0.683,0.303,1.152,0.54,1.407,0.713c0.346,0.227,0.606,0.502,0.793,0.829
				c0.187,0.327,0.281,0.693,0.281,1.108c0,0.511-0.157,0.986-0.47,1.419c-0.314,0.433-0.745,0.767-1.29,1.002
				c-0.558,0.241-1.189,0.357-1.899,0.357c-1.073,0-1.947-0.233-2.625-0.701C63.364,47.857,63.026,47.017,63.021,45.804z"/>
			<path fill="#FFFFFF" d="M71.622,48.867l1.978-9.473h1.167l-0.752,3.64c0.432-0.426,0.833-0.726,1.211-0.912
				c0.375-0.182,0.76-0.271,1.159-0.271c0.569,0,1.008,0.148,1.324,0.447c0.316,0.301,0.475,0.695,0.475,1.186
				c0,0.242-0.071,0.686-0.211,1.331l-0.846,4.053h-1.169l0.872-4.156c0.126-0.602,0.185-0.982,0.185-1.136
				c0-0.223-0.075-0.408-0.232-0.549c-0.154-0.145-0.379-0.213-0.668-0.213c-0.427,0-0.828,0.108-1.21,0.331
				c-0.385,0.222-0.686,0.526-0.899,0.909c-0.22,0.388-0.417,1.01-0.601,1.866l-0.615,2.947H71.622z"/>
			<path fill="#FFFFFF" d="M83.877,48.015c-0.411,0.347-0.798,0.604-1.174,0.765c-0.377,0.163-0.774,0.242-1.202,0.242
				c-0.628,0-1.147-0.185-1.531-0.558c-0.387-0.372-0.582-0.851-0.582-1.433c0-0.385,0.088-0.725,0.264-1.019
				s0.403-0.528,0.695-0.707c0.288-0.181,0.638-0.309,1.057-0.387c0.264-0.049,0.759-0.094,1.498-0.124
				c0.732-0.028,1.26-0.105,1.582-0.232c0.085-0.317,0.134-0.581,0.134-0.794c0-0.271-0.1-0.483-0.298-0.639
				c-0.274-0.217-0.665-0.325-1.19-0.325c-0.489,0-0.89,0.108-1.204,0.328c-0.316,0.216-0.539,0.526-0.681,0.929l-1.181-0.106
				c0.236-0.681,0.622-1.202,1.146-1.563c0.523-0.361,1.183-0.541,1.977-0.541c0.853,0,1.519,0.202,2.017,0.606
				c0.379,0.302,0.569,0.693,0.569,1.176c0,0.367-0.055,0.79-0.161,1.274l-0.381,1.704c-0.123,0.542-0.18,0.984-0.18,1.325
				c0,0.215,0.045,0.524,0.142,0.931h-1.184C83.942,48.642,83.897,48.36,83.877,48.015z M84.308,45.393
				c-0.167,0.063-0.34,0.113-0.525,0.146c-0.191,0.035-0.505,0.072-0.942,0.11c-0.683,0.058-1.159,0.138-1.446,0.229
				c-0.274,0.095-0.487,0.243-0.632,0.443c-0.138,0.2-0.21,0.426-0.21,0.67c0,0.33,0.11,0.598,0.338,0.809
				c0.229,0.211,0.549,0.315,0.967,0.315c0.388,0,0.757-0.101,1.119-0.304c0.355-0.206,0.64-0.49,0.847-0.86
				C84.029,46.589,84.19,46.065,84.308,45.393z"/>
			<path fill="#FFFFFF" d="M86.869,48.867l1.438-6.865h1.033l-0.292,1.406c0.353-0.531,0.699-0.924,1.038-1.181
				c0.338-0.251,0.681-0.377,1.037-0.377c0.234,0,0.521,0.082,0.859,0.25l-0.48,1.088c-0.203-0.148-0.421-0.222-0.663-0.222
				c-0.41,0-0.832,0.229-1.26,0.686c-0.431,0.457-0.769,1.276-1.017,2.463l-0.577,2.752H86.869z"/>
			<path fill="#FFFFFF" d="M90.969,51.496l1.982-9.494h1.078l-0.198,0.959c0.401-0.417,0.759-0.708,1.074-0.871
				c0.317-0.159,0.651-0.239,1.007-0.239c0.651,0,1.196,0.238,1.627,0.713c0.429,0.477,0.647,1.157,0.647,2.046
				c0,0.713-0.121,1.366-0.356,1.952c-0.237,0.59-0.532,1.064-0.872,1.418c-0.348,0.36-0.697,0.622-1.046,0.791
				c-0.356,0.167-0.719,0.251-1.085,0.251c-0.822,0-1.462-0.417-1.916-1.255l-0.774,3.729H90.969z M93.28,46.063
				c0,0.513,0.038,0.867,0.107,1.065c0.11,0.282,0.289,0.508,0.535,0.682c0.241,0.17,0.525,0.255,0.847,0.255
				c0.674,0,1.22-0.379,1.633-1.133c0.412-0.757,0.618-1.527,0.618-2.314c0-0.585-0.138-1.033-0.415-1.352
				c-0.278-0.317-0.625-0.473-1.038-0.473c-0.297,0-0.575,0.077-0.83,0.236c-0.252,0.156-0.486,0.392-0.705,0.703
				c-0.221,0.313-0.395,0.694-0.542,1.149C93.35,45.33,93.28,45.728,93.28,46.063z"/>
			<path fill="#FFFFFF" d="M103.235,48.867l1.981-9.473h3.957c0.686,0,1.199,0.079,1.544,0.234c0.343,0.16,0.627,0.428,0.848,0.808
				c0.223,0.382,0.335,0.81,0.335,1.282c0,0.395-0.076,0.792-0.237,1.196c-0.16,0.407-0.361,0.74-0.603,1.003
				c-0.244,0.263-0.492,0.461-0.742,0.595c-0.248,0.132-0.514,0.233-0.798,0.296c-0.613,0.143-1.223,0.212-1.842,0.212h-2.374
				l-0.803,3.847H103.235z M105.53,43.948h2.086c0.813,0,1.409-0.086,1.788-0.262c0.377-0.174,0.681-0.439,0.908-0.795
				c0.228-0.359,0.345-0.74,0.345-1.141c0-0.31-0.063-0.563-0.186-0.76c-0.119-0.193-0.288-0.338-0.508-0.431
				s-0.642-0.139-1.267-0.139h-2.432L105.53,43.948z"/>
			<path fill="#FFFFFF" d="M112.196,48.867l1.438-6.865h1.032l-0.294,1.406c0.357-0.531,0.703-0.924,1.042-1.181
				c0.334-0.251,0.682-0.377,1.037-0.377c0.229,0,0.518,0.082,0.86,0.25l-0.48,1.088c-0.204-0.148-0.427-0.222-0.666-0.222
				c-0.41,0-0.831,0.229-1.258,0.686c-0.429,0.457-0.768,1.276-1.012,2.463l-0.588,2.752H112.196z"/>
			<path fill="#FFFFFF" d="M116.822,48.867l1.439-6.865h1.162l-1.427,6.865H116.822z M118.529,40.718l0.279-1.323h1.165
				l-0.277,1.323H118.529z"/>
			<path fill="#FFFFFF" d="M124.811,46.366l1.17,0.123c-0.296,0.856-0.712,1.491-1.249,1.91c-0.542,0.416-1.16,0.622-1.846,0.622
				c-0.747,0-1.349-0.24-1.813-0.723c-0.467-0.485-0.696-1.157-0.696-2.023c0-0.747,0.148-1.486,0.442-2.209
				c0.299-0.726,0.729-1.276,1.282-1.652c0.555-0.375,1.182-0.563,1.896-0.563c0.734,0,1.323,0.207,1.749,0.623
				c0.437,0.416,0.647,0.964,0.647,1.651l-1.147,0.074c-0.007-0.435-0.135-0.772-0.382-1.02c-0.249-0.243-0.57-0.366-0.978-0.366
				c-0.469,0-0.876,0.147-1.217,0.447c-0.347,0.293-0.617,0.746-0.816,1.35c-0.2,0.607-0.297,1.189-0.297,1.748
				c0,0.59,0.134,1.025,0.393,1.32c0.256,0.293,0.572,0.437,0.958,0.437c0.375,0,0.738-0.141,1.084-0.432
				C124.34,47.396,124.613,46.956,124.811,46.366z"/>
			<path fill="#FFFFFF" d="M131.998,46.535l1.139,0.114c-0.168,0.565-0.544,1.103-1.131,1.609c-0.587,0.51-1.291,0.763-2.104,0.763
				c-0.507,0-0.975-0.117-1.4-0.352c-0.421-0.236-0.747-0.576-0.964-1.025c-0.226-0.448-0.339-0.954-0.339-1.529
				c0-0.752,0.178-1.479,0.522-2.182c0.348-0.705,0.797-1.227,1.346-1.57c0.552-0.344,1.147-0.513,1.792-0.513
				c0.82,0,1.468,0.252,1.958,0.761c0.492,0.509,0.739,1.202,0.739,2.081c0,0.335-0.034,0.68-0.091,1.035h-5.054
				c-0.021,0.134-0.024,0.251-0.024,0.358c0,0.645,0.144,1.134,0.442,1.473c0.293,0.337,0.651,0.506,1.077,0.506
				c0.405,0,0.796-0.13,1.187-0.393C131.479,47.41,131.778,47.029,131.998,46.535z M128.596,44.835h3.853
				c0.002-0.12,0.007-0.208,0.007-0.256c0-0.59-0.147-1.039-0.438-1.351c-0.297-0.313-0.67-0.467-1.132-0.467
				c-0.499,0-0.954,0.171-1.37,0.516C129.107,43.622,128.798,44.14,128.596,44.835z"/>
			<path fill="#FFFFFF" d="M134.689,46.52l1.169-0.068c0,0.335,0.052,0.621,0.153,0.857c0.106,0.239,0.297,0.433,0.574,0.586
				c0.276,0.146,0.602,0.221,0.97,0.221c0.52,0,0.909-0.101,1.168-0.306c0.259-0.209,0.385-0.453,0.385-0.734
				c0-0.199-0.08-0.392-0.229-0.574c-0.164-0.18-0.552-0.401-1.167-0.668c-0.618-0.265-1.013-0.451-1.189-0.56
				c-0.289-0.175-0.5-0.384-0.651-0.625c-0.146-0.238-0.218-0.514-0.218-0.822c0-0.541,0.213-1.008,0.643-1.395
				c0.435-0.387,1.037-0.581,1.814-0.581c0.857,0,1.514,0.199,1.965,0.597c0.453,0.397,0.686,0.923,0.701,1.576l-1.146,0.075
				c-0.013-0.415-0.162-0.741-0.438-0.981c-0.275-0.242-0.67-0.364-1.169-0.364c-0.407,0-0.723,0.092-0.942,0.281
				c-0.227,0.182-0.337,0.383-0.337,0.599c0,0.217,0.098,0.402,0.29,0.566c0.129,0.114,0.464,0.285,1.002,0.52
				c0.896,0.388,1.458,0.69,1.692,0.916c0.37,0.359,0.556,0.794,0.556,1.308c0,0.339-0.104,0.671-0.314,1.001
				c-0.204,0.327-0.527,0.59-0.956,0.784c-0.429,0.198-0.93,0.294-1.514,0.294c-0.793,0-1.467-0.193-2.023-0.588
				C134.922,48.041,134.658,47.404,134.689,46.52z"/>
			<path fill="#FFFFFF" d="M141.782,48.867l0.283-1.325h1.324l-0.292,1.325H141.782z"/>
			<path fill="#FFFFFF" d="M149.834,45.804l1.243-0.114l-0.017,0.327c0,0.368,0.084,0.701,0.251,1.006
				c0.17,0.303,0.448,0.539,0.834,0.703c0.389,0.169,0.853,0.25,1.389,0.25c0.754,0,1.333-0.166,1.729-0.498
				c0.401-0.331,0.599-0.71,0.599-1.139c0-0.297-0.104-0.567-0.313-0.811c-0.216-0.246-0.804-0.571-1.762-0.986
				c-0.753-0.322-1.254-0.568-1.527-0.742c-0.424-0.279-0.744-0.584-0.947-0.914c-0.199-0.328-0.301-0.704-0.301-1.129
				c0-0.486,0.134-0.923,0.399-1.314c0.271-0.394,0.658-0.692,1.173-0.899c0.519-0.206,1.096-0.313,1.745-0.313
				c0.765,0,1.419,0.13,1.946,0.39c0.534,0.259,0.919,0.604,1.153,1.033c0.243,0.432,0.361,0.843,0.361,1.234
				c0,0.04-0.003,0.104-0.008,0.195l-1.22,0.094c0-0.264-0.023-0.474-0.072-0.622c-0.086-0.264-0.218-0.488-0.401-0.671
				c-0.179-0.177-0.429-0.323-0.742-0.432c-0.316-0.109-0.673-0.168-1.066-0.168c-0.686,0-1.225,0.158-1.61,0.468
				c-0.291,0.236-0.435,0.552-0.435,0.942c0,0.233,0.061,0.439,0.181,0.623c0.119,0.185,0.338,0.363,0.651,0.541
				c0.221,0.125,0.757,0.371,1.594,0.741c0.684,0.303,1.152,0.54,1.408,0.713c0.346,0.227,0.612,0.502,0.797,0.829
				c0.186,0.327,0.277,0.693,0.277,1.108c0,0.511-0.16,0.986-0.467,1.419c-0.313,0.433-0.744,0.767-1.295,1.002
				c-0.551,0.241-1.184,0.357-1.896,0.357c-1.069,0-1.945-0.233-2.626-0.701C150.182,47.857,149.838,47.017,149.834,45.804z"/>
			<path fill="#FFFFFF" d="M158.428,48.867l1.434-6.865h1.171l-0.242,1.132c0.438-0.485,0.829-0.819,1.171-1.008
				c0.343-0.181,0.715-0.275,1.113-0.275c0.426,0,0.786,0.11,1.069,0.338c0.285,0.226,0.475,0.544,0.567,0.945
				c0.35-0.427,0.715-0.752,1.103-0.963c0.383-0.213,0.791-0.32,1.218-0.32c0.574,0,1.003,0.136,1.286,0.405
				c0.288,0.269,0.43,0.654,0.43,1.144c0,0.212-0.048,0.562-0.146,1.048l-0.928,4.42h-1.166l0.941-4.537
				c0.082-0.369,0.124-0.634,0.124-0.795c0-0.224-0.072-0.401-0.213-0.53c-0.144-0.128-0.343-0.191-0.602-0.191
				c-0.346,0-0.704,0.102-1.065,0.316c-0.369,0.21-0.645,0.489-0.842,0.829c-0.2,0.342-0.381,0.87-0.526,1.579l-0.701,3.329h-1.171
				l0.974-4.635c0.065-0.313,0.1-0.536,0.1-0.671c0-0.226-0.07-0.403-0.21-0.543c-0.143-0.138-0.32-0.205-0.545-0.205
				c-0.332,0-0.68,0.102-1.042,0.316c-0.363,0.21-0.66,0.504-0.888,0.881c-0.229,0.376-0.423,0.915-0.565,1.613l-0.678,3.243
				H158.428z"/>
			<path fill="#FFFFFF" d="M174.351,48.015c-0.405,0.347-0.799,0.604-1.169,0.765c-0.375,0.163-0.776,0.242-1.208,0.242
				c-0.628,0-1.143-0.185-1.527-0.558c-0.391-0.372-0.579-0.851-0.579-1.433c0-0.385,0.086-0.725,0.26-1.019
				c0.173-0.294,0.405-0.528,0.697-0.707c0.285-0.181,0.642-0.309,1.058-0.387c0.259-0.049,0.76-0.094,1.495-0.124
				c0.733-0.028,1.262-0.105,1.582-0.232c0.091-0.317,0.136-0.581,0.136-0.794c0-0.271-0.103-0.483-0.297-0.639
				c-0.274-0.217-0.67-0.325-1.189-0.325c-0.491,0-0.896,0.108-1.206,0.328c-0.315,0.216-0.54,0.526-0.683,0.929l-1.179-0.106
				c0.239-0.681,0.618-1.202,1.148-1.563c0.519-0.361,1.18-0.541,1.976-0.541c0.85,0,1.521,0.202,2.016,0.606
				c0.38,0.302,0.566,0.693,0.566,1.176c0,0.367-0.052,0.79-0.159,1.274l-0.381,1.704c-0.124,0.542-0.182,0.984-0.182,1.325
				c0,0.215,0.047,0.524,0.142,0.931h-1.18C174.42,48.642,174.375,48.36,174.351,48.015z M174.782,45.393
				c-0.163,0.063-0.341,0.113-0.529,0.146c-0.185,0.035-0.499,0.072-0.932,0.11c-0.684,0.058-1.169,0.138-1.445,0.229
				c-0.28,0.095-0.491,0.243-0.634,0.443c-0.144,0.2-0.213,0.426-0.213,0.67c0,0.33,0.113,0.598,0.34,0.809s0.544,0.315,0.968,0.315
				c0.384,0,0.759-0.101,1.114-0.304c0.358-0.206,0.644-0.49,0.847-0.86C174.509,46.589,174.662,46.065,174.782,45.393z"/>
			<path fill="#FFFFFF" d="M177.351,48.867l1.433-6.865h1.032l-0.291,1.406c0.354-0.531,0.702-0.924,1.036-1.181
				c0.337-0.251,0.684-0.377,1.04-0.377c0.229,0,0.515,0.082,0.859,0.25l-0.479,1.088c-0.202-0.148-0.424-0.222-0.664-0.222
				c-0.413,0-0.831,0.229-1.266,0.686c-0.427,0.457-0.764,1.276-1.008,2.463l-0.584,2.752H177.351z"/>
			<path fill="#FFFFFF" d="M184.754,47.918l-0.192,0.956c-0.28,0.072-0.556,0.108-0.819,0.108c-0.462,0-0.831-0.112-1.109-0.344
				c-0.207-0.172-0.308-0.404-0.308-0.702c0-0.15,0.056-0.497,0.165-1.04l0.833-3.986h-0.921l0.185-0.908h0.926l0.354-1.683
				l1.336-0.811l-0.522,2.493h1.153l-0.197,0.908h-1.142l-0.798,3.789c-0.1,0.484-0.144,0.774-0.144,0.867
				c0,0.141,0.04,0.245,0.116,0.319c0.075,0.071,0.21,0.108,0.391,0.108C184.319,47.994,184.548,47.97,184.754,47.918z"/>
			<path fill="#FFFFFF" d="M192.466,48.867l1.754-8.395h-3.107l0.224-1.078h7.456l-0.226,1.078h-3.081l-1.75,8.395H192.466z"/>
			<path fill="#FFFFFF" d="M197.268,48.867l1.434-6.865h1.031l-0.289,1.406c0.356-0.531,0.703-0.924,1.039-1.181
				c0.338-0.251,0.681-0.377,1.04-0.377c0.229,0,0.519,0.082,0.857,0.25l-0.478,1.088c-0.205-0.148-0.428-0.222-0.67-0.222
				c-0.409,0-0.827,0.229-1.256,0.686c-0.431,0.457-0.768,1.276-1.015,2.463l-0.583,2.752H197.268z"/>
			<path fill="#FFFFFF" d="M206.564,48.015c-0.402,0.347-0.796,0.604-1.168,0.765c-0.376,0.163-0.777,0.242-1.198,0.242
				c-0.637,0-1.149-0.185-1.532-0.558c-0.392-0.372-0.583-0.851-0.583-1.433c0-0.385,0.086-0.725,0.259-1.019
				c0.178-0.294,0.405-0.528,0.695-0.707c0.289-0.181,0.644-0.309,1.062-0.387c0.262-0.049,0.763-0.094,1.493-0.124
				c0.739-0.028,1.264-0.105,1.582-0.232c0.091-0.317,0.135-0.581,0.135-0.794c0-0.271-0.1-0.483-0.297-0.639
				c-0.273-0.217-0.669-0.325-1.188-0.325c-0.491,0-0.893,0.108-1.206,0.328c-0.313,0.216-0.536,0.526-0.682,0.929l-1.185-0.106
				c0.242-0.681,0.625-1.202,1.148-1.563s1.183-0.541,1.98-0.541c0.846,0,1.52,0.202,2.014,0.606
				c0.382,0.302,0.568,0.693,0.568,1.176c0,0.367-0.051,0.79-0.159,1.274l-0.383,1.704c-0.116,0.542-0.183,0.984-0.183,1.325
				c0,0.215,0.05,0.524,0.143,0.931h-1.177C206.635,48.642,206.595,48.36,206.564,48.015z M206.998,45.393
				c-0.162,0.063-0.337,0.113-0.526,0.146c-0.186,0.035-0.499,0.072-0.936,0.11c-0.684,0.058-1.168,0.138-1.441,0.229
				c-0.283,0.095-0.495,0.243-0.639,0.443c-0.14,0.2-0.209,0.426-0.209,0.67c0,0.33,0.114,0.598,0.338,0.809
				c0.227,0.211,0.546,0.315,0.962,0.315c0.393,0,0.763-0.101,1.119-0.304c0.361-0.206,0.64-0.49,0.853-0.86
				C206.718,46.589,206.879,46.065,206.998,45.393z"/>
			<path fill="#FFFFFF" d="M214.191,47.873c-0.669,0.765-1.365,1.148-2.094,1.148c-0.65,0-1.193-0.237-1.625-0.72
				c-0.437-0.481-0.649-1.178-0.649-2.089c0-0.839,0.17-1.603,0.51-2.291c0.348-0.693,0.774-1.21,1.292-1.554
				c0.509-0.348,1.027-0.518,1.541-0.518c0.857,0,1.499,0.408,1.933,1.232l0.778-3.688h1.166l-1.979,9.473h-1.079L214.191,47.873z
				 M210.988,45.992c0,0.479,0.043,0.854,0.141,1.129c0.094,0.276,0.257,0.505,0.483,0.69c0.231,0.182,0.499,0.271,0.823,0.271
				c0.527,0,1.009-0.272,1.439-0.825c0.574-0.732,0.867-1.636,0.867-2.715c0-0.54-0.142-0.964-0.432-1.271
				c-0.286-0.305-0.64-0.457-1.072-0.457c-0.275,0-0.531,0.062-0.766,0.185c-0.229,0.127-0.458,0.336-0.684,0.639
				c-0.226,0.299-0.417,0.68-0.569,1.139C211.063,45.238,210.988,45.644,210.988,45.992z"/>
			<path fill="#FFFFFF" d="M217.143,48.867l1.435-6.865h1.166l-1.43,6.865H217.143z M218.85,40.718l0.276-1.323h1.163l-0.276,1.323
				H218.85z"/>
			<path fill="#FFFFFF" d="M220.394,48.867l1.436-6.865h1.058l-0.251,1.199c0.461-0.469,0.891-0.813,1.292-1.028
				c0.396-0.215,0.811-0.322,1.23-0.322c0.551,0,0.984,0.15,1.308,0.453c0.314,0.302,0.471,0.701,0.471,1.207
				c0,0.254-0.054,0.654-0.164,1.2l-0.876,4.156h-1.168l0.91-4.35c0.09-0.421,0.14-0.735,0.14-0.938c0-0.227-0.08-0.413-0.243-0.554
				c-0.155-0.145-0.377-0.213-0.68-0.213c-0.598,0-1.13,0.216-1.599,0.646c-0.464,0.43-0.813,1.167-1.031,2.216l-0.664,3.191
				H220.394z"/>
			<path fill="#FFFFFF" d="M227.953,49.485l1.186,0.113c-0.015,0.267,0.021,0.467,0.093,0.601c0.074,0.133,0.187,0.235,0.347,0.309
				c0.209,0.097,0.49,0.141,0.822,0.141c0.71,0,1.215-0.181,1.529-0.547c0.2-0.244,0.386-0.783,0.56-1.604l0.116-0.554
				c-0.605,0.616-1.256,0.924-1.938,0.924c-0.696,0-1.274-0.256-1.742-0.766c-0.471-0.511-0.699-1.235-0.699-2.168
				c0-0.771,0.181-1.48,0.551-2.127c0.365-0.645,0.806-1.133,1.313-1.463c0.51-0.329,1.032-0.493,1.568-0.493
				c0.904,0,1.594,0.424,2.082,1.279l0.231-1.128h1.074l-1.383,6.625c-0.151,0.729-0.347,1.294-0.596,1.705
				c-0.242,0.403-0.579,0.722-1.019,0.946c-0.439,0.223-0.946,0.335-1.519,0.335c-0.55,0-1.026-0.069-1.428-0.214
				c-0.395-0.141-0.693-0.35-0.888-0.626c-0.194-0.271-0.294-0.585-0.294-0.938C227.921,49.728,227.933,49.613,227.953,49.485z
				 M229.416,45.829c0,0.471,0.038,0.824,0.135,1.061c0.126,0.33,0.311,0.584,0.548,0.757c0.245,0.178,0.505,0.265,0.801,0.265
				c0.383,0,0.766-0.137,1.145-0.403c0.382-0.271,0.685-0.688,0.922-1.25c0.23-0.565,0.351-1.107,0.351-1.616
				c0-0.566-0.153-1.014-0.472-1.349c-0.308-0.333-0.691-0.5-1.155-0.5c-0.285,0-0.563,0.075-0.831,0.23
				c-0.261,0.15-0.515,0.385-0.746,0.697c-0.228,0.312-0.405,0.686-0.521,1.118C229.473,45.275,229.416,45.605,229.416,45.829z"/>
			<path fill="#FFFFFF" d="M235.967,48.867l0.277-1.325h1.322l-0.283,1.325H235.967z"/>
		</g>
	</g>
	<g>
		<path fill="#FFFFFF" d="M47.101,8.049C36.377-2.683,18.931-2.683,8.204,8.045C-2.52,18.77-2.52,36.227,8.204,46.952
			c10.727,10.731,28.179,10.729,38.896-0.002C57.839,36.227,57.839,18.77,47.101,8.049z"/>
		<g>
			<path fill="#2A3052" d="M19.988,34.715c0,0,0.316,2.359,2.302,3.452l-0.529-0.986C21.762,37.181,22.772,34.527,19.988,34.715z"/>
			<path fill="#2A3052" d="M45.71,9.44C35.75-0.523,19.555-0.523,9.597,9.438c-9.957,9.96-9.957,26.165,0,36.127
				c9.958,9.96,26.159,9.957,36.113-0.002C55.679,35.603,55.679,19.397,45.71,9.44z M43.07,42.921
				c-0.279,0.273-0.552,0.538-0.834,0.793c-6.135,5-10.86,2.513-10.914,2.513c-3.203-0.64-4.792-0.65-5.691-1.251
				c-0.226-0.151-0.951-0.541-1.117-0.446c-0.654,0.39-1.553,0.589-2.478-0.147c-0.083-0.067-0.16-0.142-0.232-0.21
				c-1.019-1.016-0.672-2.064-0.334-2.429c0.235-0.238-0.179-0.908-0.179-0.908s-1.202-1.786-2.024-2.862
				c-0.905-1.18-1.028-3.521-1.039-3.552l-0.011-0.033c-0.915-1.086-1.01-1.42-1.326-1.95c-0.185-0.313-0.467-0.606-0.708-0.858
				c-0.165-0.165-0.318-0.321-0.425-0.468c-0.025-0.031-0.031-0.077-0.021-0.149c0.083-0.507,1.173-1.625,1.408-1.78
				c0.289-0.188,1.531-0.943,1.531-0.943s0.699-1.098,1.888-1.098c1.072,0.006,1.726-0.059,3.576,0.544l0.769,0.244
				c1.29,0.413,2.426,0.9,3.329,1.29c0.767,0.331,1.379,0.597,1.85,0.721c1.595,0.419,4.409-0.871,5.002-1.417
				c0.974-0.886,1.394-1.479,1.4-1.966c0.008-0.273-0.113-0.511-0.389-0.8c-0.143-0.132-0.328-0.379-0.56-0.613
				c-0.037-0.037-0.075-0.08-0.123-0.114c-2.7-2.868-2.233-4.666-2.23-4.695c0.115-1.29-0.624-2.118-1.418-2.976l-0.131-0.162
				c-0.042-0.038-0.092-0.104-0.092-0.104c1.15,0.188,1.933,0.651,4.179,0.901c1.276,0.138,0.873,0.126,1.892,0.101
				c1.404-0.045,2.517-0.168,2.593-0.487c-0.137-0.116-0.758,0.034-3.74-1.105c-1.38-0.53-1.598-0.608-2.476-0.898
				c-1.128-0.381-2.351-0.908-2.351-0.908c4.865,1.276,6.455,1.776,8.681,1.807c0.86,0.016,1.372-0.088,1.673-0.149
				c0.316-0.057,1.298-0.28,1.41-0.62c0.034-0.059-0.942,0.161-2.747-0.435c-5.678-1.876-6.161-2.815-9.308-4.039
				c-1.097-0.426-1.455-0.661-4.77-1.516c-1.52-0.39-3.817-0.166-4.128,0.029c-4.305-1.012-5.282-0.901-6.546-0.629
				c8.421-5.4,19.794-4.427,27.161,2.94c0.998,1.001,1.883,2.078,2.658,3.218l0.104,0.157c2.364,3.538,3.626,7.691,3.626,12.04
				C49.457,33.325,47.188,38.797,43.07,42.921z M28.773,18.305c2.137,0.762,2.823,3.038,2.823,3.038
				c-2.716,0.62-2.144-2.155-2.144-2.155L28.773,18.305z"/>
		</g>
	</g>
</g>
</svg>
