<?xml version="1.0" encoding="utf-8"?>
<!-- Generator: Adobe Illustrator 18.1.0, SVG Export Plug-In . SVG Version: 6.00 Build 0)  -->
<svg version="1.1" id="Layer_1" xmlns="http://www.w3.org/2000/svg" xmlns:xlink="http://www.w3.org/1999/xlink" x="0px" y="0px"
	 viewBox="-186 369 238 55" enable-background="new -186 369 238 55" xml:space="preserve">
<g>
	<g>
		<path fill="#FFFFFF" d="M-82.8,381c-0.7,0-1.4,0.1-1.9,0.3c-0.6,0.2-1.1,0.4-1.6,0.7c-0.5,0.3-0.9,0.7-1.2,1
			c-0.1,0.1-0.2,0.2-0.3,0.3v-2h-4.8v18.1h4.8v-10.1c0-1.2,0.3-2.2,1-2.9c0.6-0.7,1.5-1,2.5-1c1.1,0,1.9,0.3,2.4,1
			c0.6,0.7,0.9,1.6,0.9,2.9v10.2h4.8V388c0-2.1-0.6-3.8-1.7-5.1C-79.1,381.6-80.7,381-82.8,381z"/>
		<path fill="#FFFFFF" d="M-65.2,381.1c-1.5,0-2.7,0.1-3.7,0.4c-1,0.3-2,0.6-3,1.1l-0.3,0.1l1.3,3.9l0.4-0.2
			c0.8-0.3,1.5-0.6,2.3-0.8c0.7-0.2,1.6-0.3,2.5-0.3c1.3,0,2.3,0.3,2.9,0.9c0.6,0.5,0.9,1.3,1,2.3c-0.5-0.2-1.1-0.3-1.7-0.4
			c-0.7-0.1-1.7-0.2-2.7-0.2c-1,0-2,0.1-2.9,0.4c-0.9,0.2-1.7,0.6-2.4,1.1c-0.7,0.5-1.2,1.1-1.6,1.9c-0.4,0.8-0.6,1.7-0.6,2.7v0.1
			c0,0.9,0.2,1.8,0.5,2.5c0.4,0.7,0.8,1.3,1.4,1.8c0.6,0.5,1.3,0.8,2.1,1.1c0.8,0.2,1.6,0.4,2.5,0.4c1.4,0,2.5-0.3,3.5-0.8
			c0.6-0.3,1.2-0.7,1.7-1.2v1.6h4.7v-10.6c0-2.4-0.7-4.3-2-5.7C-60.5,381.8-62.6,381.1-65.2,381.1z M-66.1,396.1
			c-0.9,0-1.6-0.2-2.2-0.6c-0.5-0.4-0.8-0.9-0.8-1.6v-0.1c0-0.7,0.3-1.2,0.9-1.7c0.6-0.4,1.5-0.7,2.7-0.7c0.7,0,1.4,0.1,2.1,0.2
			c0.6,0.1,1.1,0.2,1.5,0.4v0.7c0,0.5-0.1,0.9-0.3,1.3c-0.2,0.4-0.5,0.7-0.9,1c-0.4,0.3-0.8,0.5-1.3,0.7
			C-64.9,396-65.4,396.1-66.1,396.1z"/>
		<path fill="#FFFFFF" d="M-32.7,393.5l-4.6-12.1h-5.1l7.4,17.7c-0.3,0.6-0.6,1.1-0.9,1.3c-0.3,0.2-0.7,0.4-1.2,0.4
			c-0.4,0-0.7-0.1-1.1-0.2c-0.4-0.1-0.7-0.3-1.1-0.4l-0.4-0.2l-1.7,3.6l0.3,0.2c0.6,0.3,1.3,0.6,2,0.8c0.7,0.2,1.5,0.3,2.3,0.3
			c0.7,0,1.4-0.1,2-0.3c0.6-0.2,1.1-0.5,1.6-0.9c0.5-0.4,0.9-0.9,1.3-1.6c0.4-0.6,0.8-1.4,1.1-2.3l7.1-18.3h-5L-32.7,393.5z"/>
		<path fill="#E88024" d="M-1.7,393.6c-0.6,0.6-1.3,1.1-1.9,1.5c-0.6,0.4-1.4,0.6-2.3,0.6c-0.7,0-1.4-0.1-1.9-0.4
			c-0.6-0.3-1.1-0.6-1.5-1.1c-0.4-0.5-0.8-1-1-1.6c-0.2-0.6-0.3-1.3-0.3-2v-0.1c0-0.7,0.1-1.4,0.3-2c0.2-0.6,0.6-1.2,1-1.6
			c0.4-0.5,0.9-0.8,1.5-1.1c0.6-0.3,1.2-0.4,1.8-0.4c0.9,0,1.7,0.2,2.4,0.6c0.7,0.4,1.3,0.9,1.9,1.5l0.3,0.3l3-3.2l-0.2-0.3
			c-0.8-0.9-1.8-1.7-2.9-2.2c-1.1-0.6-2.6-0.9-4.3-0.9c-1.3,0-2.6,0.3-3.7,0.8c-1.1,0.5-2.1,1.2-3,2c-0.8,0.9-1.5,1.9-2,3
			c-0.5,1.1-0.7,2.4-0.7,3.6v0.1c0,1.3,0.2,2.5,0.7,3.6c0.5,1.1,1.1,2.1,2,3c0.8,0.8,1.8,1.5,3,2c1.1,0.5,2.4,0.7,3.7,0.7
			c1.7,0,3.2-0.3,4.4-0.9c1.1-0.6,2.1-1.4,3-2.4l0.2-0.3l-2.9-2.9L-1.7,393.6z"/>
		<path fill="#E88024" d="M19.5,383.7c-0.9-0.9-1.9-1.5-3-2c-1.2-0.5-2.5-0.7-3.8-0.7c-1.4,0-2.7,0.3-3.8,0.8c-1.2,0.5-2.2,1.2-3,2
			c-0.9,0.8-1.5,1.9-2,3c-0.5,1.1-0.7,2.4-0.7,3.7v0.1c0,1.3,0.2,2.5,0.7,3.6c0.5,1.1,1.2,2.1,2,3c0.9,0.8,1.9,1.5,3,2
			c1.2,0.5,2.4,0.7,3.8,0.7c1.4,0,2.7-0.3,3.9-0.8c1.2-0.5,2.2-1.2,3.1-2c0.8-0.9,1.5-1.9,2-3c0.5-1.1,0.7-2.4,0.7-3.6v-0.1
			c0-1.3-0.2-2.5-0.7-3.6C21,385.6,20.3,384.6,19.5,383.7z M12.6,395.6c-0.7,0-1.4-0.1-1.9-0.4c-0.6-0.3-1.1-0.7-1.5-1.1
			c-0.4-0.5-0.8-1-1-1.7c-0.2-0.6-0.4-1.3-0.4-2v-0.1c0-0.7,0.1-1.4,0.3-2c0.2-0.6,0.5-1.2,1-1.6c0.4-0.5,0.9-0.8,1.5-1.1
			c0.6-0.3,1.3-0.4,2-0.4c0.7,0,1.4,0.1,2,0.4c0.6,0.3,1.1,0.6,1.5,1.1c0.4,0.5,0.8,1,1,1.6c0.2,0.6,0.4,1.3,0.4,2v0.1
			c0,0.7-0.1,1.4-0.3,2c-0.2,0.6-0.5,1.2-1,1.6c-0.4,0.5-0.9,0.8-1.5,1.1C14,395.5,13.3,395.6,12.6,395.6z"/>
		<path fill="#E88024" d="M50.1,382.8c-1.1-1.2-2.7-1.8-4.8-1.8c-1.4,0-2.6,0.3-3.6,0.9c-0.8,0.5-1.6,1.1-2.2,1.9
			c-0.5-0.8-1.1-1.4-1.8-1.9c-0.9-0.6-2-0.9-3.4-0.9c-0.7,0-1.3,0.1-1.9,0.3c-0.6,0.2-1.1,0.4-1.5,0.7c-0.4,0.3-0.9,0.6-1.2,1
			c-0.1,0.1-0.2,0.2-0.3,0.3v-1.9h-4.8v18.1h4.8v-10.1c0-1.2,0.3-2.2,0.9-2.9c0.6-0.7,1.4-1,2.4-1c1,0,1.8,0.3,2.3,0.9
			c0.6,0.6,0.8,1.6,0.8,2.9v10.2h4.8v-10.1c0-1.3,0.3-2.3,0.9-2.9c0.6-0.7,1.4-1,2.4-1c1,0,1.8,0.3,2.3,0.9c0.5,0.6,0.8,1.6,0.8,2.9
			v10.2h4.8V388C51.8,385.8,51.3,384,50.1,382.8z"/>
		<g>
			<rect x="-99.9" y="381.3" fill="#FFFFFF" width="4.8" height="18.1"/>
			<path fill="#FFFFFF" d="M-94.8,377.1c0-1.5-1.2-2.6-2.6-2.6c-1.5,0-2.6,1.2-2.6,2.6c0,1.5,1.2,2.6,2.6,2.6
				C-96,379.8-94.8,378.6-94.8,377.1z"/>
		</g>
		<path fill="#E88024" d="M-17.7,397.2c0-1.5-1.2-2.6-2.6-2.6c-1.5,0-2.6,1.2-2.6,2.6c0,1.5,1.2,2.6,2.6,2.6
			C-18.9,399.8-17.7,398.6-17.7,397.2z"/>
		<path fill="#FFFFFF" d="M-103.8,388.4c-0.4-0.5-1-0.9-1.6-1.3c-0.4-0.2-0.8-0.4-1.2-0.6l-0.3-0.1l0.2-0.2c0.2-0.1,0.4-0.3,0.6-0.4
			c0.4-0.3,0.8-0.7,1.2-1.2c0.3-0.4,0.6-1,0.8-1.6c0.2-0.6,0.3-1.3,0.3-2.1V381c0-1.7-0.6-3.1-1.7-4.2c-1.5-1.5-3.7-2.2-6.5-2.2
			h-11.2v24.9h11.5c1.4,0,2.6-0.1,3.8-0.4c1.1-0.3,2.1-0.7,2.9-1.3c0.8-0.6,1.5-1.3,1.9-2.2c0.4-0.9,0.7-1.9,0.7-3v-0.1
			c0-0.9-0.1-1.6-0.4-2.3C-103,389.5-103.3,388.9-103.8,388.4z M-118.5,384.6v-5.7v-0.1h0.2h5.8c1.3,0,2.3,0.3,3,0.8
			c0.7,0.5,1,1.2,1,2.1v0.1c0,1-0.4,1.8-1.1,2.3c-0.8,0.5-1.9,0.8-3.2,0.8h-5.4h-0.2V384.6z M-107.2,392c0,1-0.4,1.8-1.1,2.3
			c-0.8,0.5-1.9,0.8-3.3,0.8h-6.7h-0.2V395v-5.9v-0.2h0.2h6.4c1.6,0,2.9,0.3,3.6,0.8C-107.5,390.2-107.2,391-107.2,392L-107.2,392z"
			/>
		<path fill="#FFFFFF" d="M-44.2,381c-1.6-0.1-3,0.3-4.1,1.2c-0.7,0.5-1.2,1.2-1.7,1.9v-2.7h-4.8v18.1h4.8v-7c0-1.1,0.1-2.1,0.4-2.9
			c0.3-0.8,0.6-1.5,1.1-2c0.5-0.5,1.1-0.9,1.7-1.2c0.7-0.3,1.4-0.4,2.3-0.4h0.6V381L-44.2,381z"/>
	</g>
	<g>
		<path fill="#FFFFFF" d="M-123,414.8l1.2-0.1l0,0.3c0,0.4,0.1,0.7,0.2,1c0.2,0.3,0.4,0.5,0.8,0.7c0.4,0.2,0.9,0.3,1.4,0.3
			c0.8,0,1.3-0.2,1.7-0.5c0.4-0.3,0.6-0.7,0.6-1.1c0-0.3-0.1-0.6-0.3-0.8c-0.2-0.2-0.8-0.6-1.8-1c-0.7-0.3-1.3-0.6-1.5-0.7
			c-0.4-0.3-0.7-0.6-0.9-0.9c-0.2-0.3-0.3-0.7-0.3-1.1c0-0.5,0.1-0.9,0.4-1.3c0.3-0.4,0.7-0.7,1.2-0.9c0.5-0.2,1.1-0.3,1.7-0.3
			c0.8,0,1.4,0.1,1.9,0.4c0.5,0.3,0.9,0.6,1.2,1c0.2,0.4,0.4,0.8,0.4,1.2c0,0,0,0.1,0,0.2l-1.2,0.1c0-0.3,0-0.5-0.1-0.6
			c-0.1-0.3-0.2-0.5-0.4-0.7c-0.2-0.2-0.4-0.3-0.7-0.4c-0.3-0.1-0.7-0.2-1.1-0.2c-0.7,0-1.2,0.2-1.6,0.5c-0.3,0.2-0.4,0.6-0.4,0.9
			c0,0.2,0.1,0.4,0.2,0.6c0.1,0.2,0.3,0.4,0.7,0.5c0.2,0.1,0.8,0.4,1.6,0.7c0.7,0.3,1.2,0.5,1.4,0.7c0.3,0.2,0.6,0.5,0.8,0.8
			c0.2,0.3,0.3,0.7,0.3,1.1c0,0.5-0.2,1-0.5,1.4c-0.3,0.4-0.7,0.8-1.3,1c-0.6,0.2-1.2,0.4-1.9,0.4c-1.1,0-1.9-0.2-2.6-0.7
			C-122.6,416.9-123,416-123,414.8z"/>
		<path fill="#FFFFFF" d="M-114.4,417.9l2-9.5h1.2l-0.8,3.6c0.4-0.4,0.8-0.7,1.2-0.9c0.4-0.2,0.8-0.3,1.2-0.3c0.6,0,1,0.1,1.3,0.4
			c0.3,0.3,0.5,0.7,0.5,1.2c0,0.2-0.1,0.7-0.2,1.3l-0.8,4.1h-1.2l0.9-4.2c0.1-0.6,0.2-1,0.2-1.1c0-0.2-0.1-0.4-0.2-0.5
			c-0.2-0.1-0.4-0.2-0.7-0.2c-0.4,0-0.8,0.1-1.2,0.3c-0.4,0.2-0.7,0.5-0.9,0.9c-0.2,0.4-0.4,1-0.6,1.9l-0.6,2.9
			C-113.2,417.9-114.4,417.9-114.4,417.9z"/>
		<path fill="#FFFFFF" d="M-102.1,417c-0.4,0.3-0.8,0.6-1.2,0.8c-0.4,0.2-0.8,0.2-1.2,0.2c-0.6,0-1.1-0.2-1.5-0.6
			c-0.4-0.4-0.6-0.9-0.6-1.4c0-0.4,0.1-0.7,0.3-1s0.4-0.5,0.7-0.7c0.3-0.2,0.6-0.3,1.1-0.4c0.3,0,0.8-0.1,1.5-0.1
			c0.7,0,1.3-0.1,1.6-0.2c0.1-0.3,0.1-0.6,0.1-0.8c0-0.3-0.1-0.5-0.3-0.6c-0.3-0.2-0.7-0.3-1.2-0.3c-0.5,0-0.9,0.1-1.2,0.3
			c-0.3,0.2-0.5,0.5-0.7,0.9l-1.2-0.1c0.2-0.7,0.6-1.2,1.1-1.6c0.5-0.4,1.2-0.5,2-0.5c0.9,0,1.5,0.2,2,0.6c0.4,0.3,0.6,0.7,0.6,1.2
			c0,0.4-0.1,0.8-0.2,1.3l-0.4,1.7c-0.1,0.5-0.2,1-0.2,1.3c0,0.2,0,0.5,0.1,0.9h-1.2C-102.1,417.6-102.1,417.4-102.1,417z
			 M-101.7,414.4c-0.2,0.1-0.3,0.1-0.5,0.1c-0.2,0-0.5,0.1-0.9,0.1c-0.7,0.1-1.2,0.1-1.4,0.2c-0.3,0.1-0.5,0.2-0.6,0.4
			c-0.1,0.2-0.2,0.4-0.2,0.7c0,0.3,0.1,0.6,0.3,0.8c0.2,0.2,0.5,0.3,1,0.3c0.4,0,0.8-0.1,1.1-0.3c0.4-0.2,0.6-0.5,0.8-0.9
			C-102,415.6-101.8,415.1-101.7,414.4z"/>
		<path fill="#FFFFFF" d="M-99.1,417.9l1.4-6.9h1l-0.3,1.4c0.4-0.5,0.7-0.9,1-1.2c0.3-0.3,0.7-0.4,1-0.4c0.2,0,0.5,0.1,0.9,0.3
			l-0.5,1.1c-0.2-0.1-0.4-0.2-0.7-0.2c-0.4,0-0.8,0.2-1.3,0.7c-0.4,0.5-0.8,1.3-1,2.5l-0.6,2.8H-99.1z"/>
		<path fill="#FFFFFF" d="M-95,420.5l2-9.5h1.1l-0.2,1c0.4-0.4,0.8-0.7,1.1-0.9c0.3-0.2,0.7-0.2,1-0.2c0.7,0,1.2,0.2,1.6,0.7
			c0.4,0.5,0.6,1.2,0.6,2c0,0.7-0.1,1.4-0.4,2c-0.2,0.6-0.5,1.1-0.9,1.4c-0.3,0.4-0.7,0.6-1,0.8c-0.4,0.2-0.7,0.3-1.1,0.3
			c-0.8,0-1.5-0.4-1.9-1.3l-0.8,3.7C-93.9,420.5-95,420.5-95,420.5z M-92.7,415.1c0,0.5,0,0.9,0.1,1.1c0.1,0.3,0.3,0.5,0.5,0.7
			c0.2,0.2,0.5,0.3,0.8,0.3c0.7,0,1.2-0.4,1.6-1.1c0.4-0.8,0.6-1.5,0.6-2.3c0-0.6-0.1-1-0.4-1.4c-0.3-0.3-0.6-0.5-1-0.5
			c-0.3,0-0.6,0.1-0.8,0.2c-0.3,0.2-0.5,0.4-0.7,0.7c-0.2,0.3-0.4,0.7-0.5,1.1C-92.7,414.3-92.7,414.7-92.7,415.1z"/>
		<path fill="#FFFFFF" d="M-82.8,417.9l2-9.5h4c0.7,0,1.2,0.1,1.5,0.2c0.3,0.2,0.6,0.4,0.8,0.8c0.2,0.4,0.3,0.8,0.3,1.3
			c0,0.4-0.1,0.8-0.2,1.2c-0.2,0.4-0.4,0.7-0.6,1c-0.2,0.3-0.5,0.5-0.7,0.6c-0.2,0.1-0.5,0.2-0.8,0.3c-0.6,0.1-1.2,0.2-1.8,0.2h-2.4
			l-0.8,3.8C-81.5,417.9-82.8,417.9-82.8,417.9z M-80.5,412.9h2.1c0.8,0,1.4-0.1,1.8-0.3c0.4-0.2,0.7-0.4,0.9-0.8
			c0.2-0.4,0.3-0.7,0.3-1.1c0-0.3-0.1-0.6-0.2-0.8c-0.1-0.2-0.3-0.3-0.5-0.4c-0.2-0.1-0.6-0.1-1.3-0.1h-2.4L-80.5,412.9z"/>
		<path fill="#FFFFFF" d="M-73.8,417.9l1.4-6.9h1l-0.3,1.4c0.4-0.5,0.7-0.9,1-1.2c0.3-0.3,0.7-0.4,1-0.4c0.2,0,0.5,0.1,0.9,0.3
			l-0.5,1.1c-0.2-0.1-0.4-0.2-0.7-0.2c-0.4,0-0.8,0.2-1.3,0.7c-0.4,0.5-0.8,1.3-1,2.5l-0.6,2.8H-73.8z"/>
		<path fill="#FFFFFF" d="M-69.2,417.9l1.4-6.9h1.2l-1.4,6.9C-68,417.9-69.2,417.9-69.2,417.9z M-67.5,409.7l0.3-1.3h1.2l-0.3,1.3
			C-66.3,409.7-67.5,409.7-67.5,409.7z"/>
		<path fill="#FFFFFF" d="M-61.2,415.4l1.2,0.1c-0.3,0.9-0.7,1.5-1.2,1.9c-0.5,0.4-1.2,0.6-1.8,0.6c-0.7,0-1.3-0.2-1.8-0.7
			c-0.5-0.5-0.7-1.2-0.7-2c0-0.7,0.1-1.5,0.4-2.2c0.3-0.7,0.7-1.3,1.3-1.7c0.6-0.4,1.2-0.6,1.9-0.6c0.7,0,1.3,0.2,1.7,0.6
			c0.4,0.4,0.6,1,0.6,1.7l-1.1,0.1c0-0.4-0.1-0.8-0.4-1c-0.2-0.2-0.6-0.4-1-0.4c-0.5,0-0.9,0.1-1.2,0.4c-0.3,0.3-0.6,0.7-0.8,1.4
			c-0.2,0.6-0.3,1.2-0.3,1.7c0,0.6,0.1,1,0.4,1.3c0.3,0.3,0.6,0.4,1,0.4c0.4,0,0.7-0.1,1.1-0.4C-61.7,416.4-61.4,416-61.2,415.4z"/>
		<path fill="#FFFFFF" d="M-54,415.5l1.1,0.1c-0.2,0.6-0.5,1.1-1.1,1.6c-0.6,0.5-1.3,0.8-2.1,0.8c-0.5,0-1-0.1-1.4-0.4
			c-0.4-0.2-0.7-0.6-1-1c-0.2-0.4-0.3-1-0.3-1.5c0-0.8,0.2-1.5,0.5-2.2c0.3-0.7,0.8-1.2,1.3-1.6c0.6-0.3,1.1-0.5,1.8-0.5
			c0.8,0,1.5,0.3,2,0.8c0.5,0.5,0.7,1.2,0.7,2.1c0,0.3,0,0.7-0.1,1h-5.1c0,0.1,0,0.3,0,0.4c0,0.6,0.1,1.1,0.4,1.5
			c0.3,0.3,0.7,0.5,1.1,0.5c0.4,0,0.8-0.1,1.2-0.4C-54.5,416.4-54.2,416-54,415.5z M-57.4,413.8h3.9c0-0.1,0-0.2,0-0.3
			c0-0.6-0.1-1-0.4-1.4c-0.3-0.3-0.7-0.5-1.1-0.5c-0.5,0-1,0.2-1.4,0.5C-56.9,412.6-57.2,413.1-57.4,413.8z"/>
		<path fill="#FFFFFF" d="M-51.3,415.5l1.2-0.1c0,0.3,0.1,0.6,0.2,0.9c0.1,0.2,0.3,0.4,0.6,0.6c0.3,0.1,0.6,0.2,1,0.2
			c0.5,0,0.9-0.1,1.2-0.3c0.3-0.2,0.4-0.5,0.4-0.7c0-0.2-0.1-0.4-0.2-0.6c-0.2-0.2-0.6-0.4-1.2-0.7c-0.6-0.3-1-0.5-1.2-0.6
			c-0.3-0.2-0.5-0.4-0.7-0.6c-0.1-0.2-0.2-0.5-0.2-0.8c0-0.5,0.2-1,0.6-1.4c0.4-0.4,1-0.6,1.8-0.6c0.9,0,1.5,0.2,2,0.6
			c0.5,0.4,0.7,0.9,0.7,1.6l-1.1,0.1c0-0.4-0.2-0.7-0.4-1c-0.3-0.2-0.7-0.4-1.2-0.4c-0.4,0-0.7,0.1-0.9,0.3
			c-0.2,0.2-0.3,0.4-0.3,0.6c0,0.2,0.1,0.4,0.3,0.6c0.1,0.1,0.5,0.3,1,0.5c0.9,0.4,1.5,0.7,1.7,0.9c0.4,0.4,0.6,0.8,0.6,1.3
			c0,0.3-0.1,0.7-0.3,1c-0.2,0.3-0.5,0.6-1,0.8c-0.4,0.2-0.9,0.3-1.5,0.3c-0.8,0-1.5-0.2-2-0.6C-51.1,417-51.3,416.4-51.3,415.5z"/>
		<path fill="#FFFFFF" d="M-44.2,417.9l0.3-1.3h1.3l-0.3,1.3H-44.2z"/>
		<path fill="#FFFFFF" d="M-36.2,414.8l1.2-0.1l0,0.3c0,0.4,0.1,0.7,0.3,1c0.2,0.3,0.4,0.5,0.8,0.7c0.4,0.2,0.9,0.3,1.4,0.3
			c0.8,0,1.3-0.2,1.7-0.5c0.4-0.3,0.6-0.7,0.6-1.1c0-0.3-0.1-0.6-0.3-0.8c-0.2-0.2-0.8-0.6-1.8-1c-0.8-0.3-1.3-0.6-1.5-0.7
			c-0.4-0.3-0.7-0.6-0.9-0.9c-0.2-0.3-0.3-0.7-0.3-1.1c0-0.5,0.1-0.9,0.4-1.3c0.3-0.4,0.7-0.7,1.2-0.9c0.5-0.2,1.1-0.3,1.7-0.3
			c0.8,0,1.4,0.1,1.9,0.4c0.5,0.3,0.9,0.6,1.2,1c0.2,0.4,0.4,0.8,0.4,1.2c0,0,0,0.1,0,0.2l-1.2,0.1c0-0.3,0-0.5-0.1-0.6
			c-0.1-0.3-0.2-0.5-0.4-0.7c-0.2-0.2-0.4-0.3-0.7-0.4c-0.3-0.1-0.7-0.2-1.1-0.2c-0.7,0-1.2,0.2-1.6,0.5c-0.3,0.2-0.4,0.6-0.4,0.9
			c0,0.2,0.1,0.4,0.2,0.6c0.1,0.2,0.3,0.4,0.7,0.5c0.2,0.1,0.8,0.4,1.6,0.7c0.7,0.3,1.2,0.5,1.4,0.7c0.3,0.2,0.6,0.5,0.8,0.8
			c0.2,0.3,0.3,0.7,0.3,1.1c0,0.5-0.2,1-0.5,1.4c-0.3,0.4-0.7,0.8-1.3,1c-0.6,0.2-1.2,0.4-1.9,0.4c-1.1,0-1.9-0.2-2.6-0.7
			C-35.8,416.9-36.2,416-36.2,414.8z"/>
		<path fill="#FFFFFF" d="M-27.6,417.9l1.4-6.9h1.2l-0.2,1.1c0.4-0.5,0.8-0.8,1.2-1c0.3-0.2,0.7-0.3,1.1-0.3c0.4,0,0.8,0.1,1.1,0.3
			c0.3,0.2,0.5,0.5,0.6,0.9c0.4-0.4,0.7-0.8,1.1-1c0.4-0.2,0.8-0.3,1.2-0.3c0.6,0,1,0.1,1.3,0.4c0.3,0.3,0.4,0.7,0.4,1.1
			c0,0.2,0,0.6-0.1,1l-0.9,4.4h-1.2l0.9-4.5c0.1-0.4,0.1-0.6,0.1-0.8c0-0.2-0.1-0.4-0.2-0.5c-0.1-0.1-0.3-0.2-0.6-0.2
			c-0.3,0-0.7,0.1-1.1,0.3c-0.4,0.2-0.6,0.5-0.8,0.8c-0.2,0.3-0.4,0.9-0.5,1.6l-0.7,3.3h-1.2l1-4.6c0.1-0.3,0.1-0.5,0.1-0.7
			c0-0.2-0.1-0.4-0.2-0.5c-0.1-0.1-0.3-0.2-0.5-0.2c-0.3,0-0.7,0.1-1,0.3c-0.4,0.2-0.7,0.5-0.9,0.9c-0.2,0.4-0.4,0.9-0.6,1.6
			l-0.7,3.2C-26.4,417.9-27.6,417.9-27.6,417.9z"/>
		<path fill="#FFFFFF" d="M-11.6,417c-0.4,0.3-0.8,0.6-1.2,0.8c-0.4,0.2-0.8,0.2-1.2,0.2c-0.6,0-1.1-0.2-1.5-0.6
			c-0.4-0.4-0.6-0.9-0.6-1.4c0-0.4,0.1-0.7,0.3-1c0.2-0.3,0.4-0.5,0.7-0.7c0.3-0.2,0.6-0.3,1.1-0.4c0.3,0,0.8-0.1,1.5-0.1
			c0.7,0,1.3-0.1,1.6-0.2c0.1-0.3,0.1-0.6,0.1-0.8c0-0.3-0.1-0.5-0.3-0.6c-0.3-0.2-0.7-0.3-1.2-0.3c-0.5,0-0.9,0.1-1.2,0.3
			c-0.3,0.2-0.5,0.5-0.7,0.9l-1.2-0.1c0.2-0.7,0.6-1.2,1.1-1.6c0.5-0.4,1.2-0.5,2-0.5c0.9,0,1.5,0.2,2,0.6c0.4,0.3,0.6,0.7,0.6,1.2
			c0,0.4-0.1,0.8-0.2,1.3l-0.4,1.7c-0.1,0.5-0.2,1-0.2,1.3c0,0.2,0,0.5,0.1,0.9h-1.2C-11.6,417.6-11.6,417.4-11.6,417z M-11.2,414.4
			c-0.2,0.1-0.3,0.1-0.5,0.1c-0.2,0-0.5,0.1-0.9,0.1c-0.7,0.1-1.2,0.1-1.4,0.2c-0.3,0.1-0.5,0.2-0.6,0.4c-0.1,0.2-0.2,0.4-0.2,0.7
			c0,0.3,0.1,0.6,0.3,0.8c0.2,0.2,0.5,0.3,1,0.3c0.4,0,0.8-0.1,1.1-0.3c0.4-0.2,0.6-0.5,0.8-0.9C-11.5,415.6-11.3,415.1-11.2,414.4z
			"/>
		<path fill="#FFFFFF" d="M-8.6,417.9l1.4-6.9h1l-0.3,1.4c0.4-0.5,0.7-0.9,1-1.2c0.3-0.3,0.7-0.4,1-0.4c0.2,0,0.5,0.1,0.9,0.3
			l-0.5,1.1c-0.2-0.1-0.4-0.2-0.7-0.2c-0.4,0-0.8,0.2-1.3,0.7c-0.4,0.5-0.8,1.3-1,2.5l-0.6,2.8H-8.6z"/>
		<path fill="#FFFFFF" d="M-1.2,416.9l-0.2,1c-0.3,0.1-0.6,0.1-0.8,0.1c-0.5,0-0.8-0.1-1.1-0.3c-0.2-0.2-0.3-0.4-0.3-0.7
			c0-0.1,0.1-0.5,0.2-1l0.8-4h-0.9l0.2-0.9h0.9l0.4-1.7l1.3-0.8l-0.5,2.5h1.2l-0.2,0.9h-1.1l-0.8,3.8c-0.1,0.5-0.1,0.8-0.1,0.9
			c0,0.1,0,0.2,0.1,0.3c0.1,0.1,0.2,0.1,0.4,0.1C-1.7,417-1.5,417-1.2,416.9z"/>
		<path fill="#FFFFFF" d="M6.5,417.9l1.8-8.4H5.1l0.2-1.1h7.5l-0.2,1.1H9.5l-1.8,8.4H6.5z"/>
		<path fill="#FFFFFF" d="M11.3,417.9l1.4-6.9h1l-0.3,1.4c0.4-0.5,0.7-0.9,1-1.2c0.3-0.3,0.7-0.4,1-0.4c0.2,0,0.5,0.1,0.9,0.3
			l-0.5,1.1c-0.2-0.1-0.4-0.2-0.7-0.2c-0.4,0-0.8,0.2-1.3,0.7c-0.4,0.5-0.8,1.3-1,2.5l-0.6,2.8H11.3z"/>
		<path fill="#FFFFFF" d="M20.6,417c-0.4,0.3-0.8,0.6-1.2,0.8c-0.4,0.2-0.8,0.2-1.2,0.2c-0.6,0-1.1-0.2-1.5-0.6
			c-0.4-0.4-0.6-0.9-0.6-1.4c0-0.4,0.1-0.7,0.3-1c0.2-0.3,0.4-0.5,0.7-0.7c0.3-0.2,0.6-0.3,1.1-0.4c0.3,0,0.8-0.1,1.5-0.1
			c0.7,0,1.3-0.1,1.6-0.2c0.1-0.3,0.1-0.6,0.1-0.8c0-0.3-0.1-0.5-0.3-0.6c-0.3-0.2-0.7-0.3-1.2-0.3c-0.5,0-0.9,0.1-1.2,0.3
			c-0.3,0.2-0.5,0.5-0.7,0.9l-1.2-0.1c0.2-0.7,0.6-1.2,1.1-1.6s1.2-0.5,2-0.5c0.8,0,1.5,0.2,2,0.6c0.4,0.3,0.6,0.7,0.6,1.2
			c0,0.4-0.1,0.8-0.2,1.3l-0.4,1.7c-0.1,0.5-0.2,1-0.2,1.3c0,0.2,0.1,0.5,0.1,0.9h-1.2C20.6,417.6,20.6,417.4,20.6,417z M21,414.4
			c-0.2,0.1-0.3,0.1-0.5,0.1c-0.2,0-0.5,0.1-0.9,0.1c-0.7,0.1-1.2,0.1-1.4,0.2c-0.3,0.1-0.5,0.2-0.6,0.4c-0.1,0.2-0.2,0.4-0.2,0.7
			c0,0.3,0.1,0.6,0.3,0.8c0.2,0.2,0.5,0.3,1,0.3c0.4,0,0.8-0.1,1.1-0.3c0.4-0.2,0.6-0.5,0.9-0.9C20.7,415.6,20.9,415.1,21,414.4z"/>
		<path fill="#FFFFFF" d="M28.2,416.9c-0.7,0.8-1.4,1.1-2.1,1.1c-0.6,0-1.2-0.2-1.6-0.7c-0.4-0.5-0.6-1.2-0.6-2.1
			c0-0.8,0.2-1.6,0.5-2.3c0.3-0.7,0.8-1.2,1.3-1.6c0.5-0.3,1-0.5,1.5-0.5c0.9,0,1.5,0.4,1.9,1.2l0.8-3.7H31l-2,9.5H28L28.2,416.9z
			 M25,415c0,0.5,0,0.9,0.1,1.1c0.1,0.3,0.3,0.5,0.5,0.7c0.2,0.2,0.5,0.3,0.8,0.3c0.5,0,1-0.3,1.4-0.8c0.6-0.7,0.9-1.6,0.9-2.7
			c0-0.5-0.1-1-0.4-1.3c-0.3-0.3-0.6-0.5-1.1-0.5c-0.3,0-0.5,0.1-0.8,0.2c-0.2,0.1-0.5,0.3-0.7,0.6c-0.2,0.3-0.4,0.7-0.6,1.1
			C25.1,414.2,25,414.6,25,415z"/>
		<path fill="#FFFFFF" d="M31.1,417.9l1.4-6.9h1.2l-1.4,6.9C32.3,417.9,31.1,417.9,31.1,417.9z M32.9,409.7l0.3-1.3h1.2l-0.3,1.3
			C34,409.7,32.9,409.7,32.9,409.7z"/>
		<path fill="#FFFFFF" d="M34.4,417.9l1.4-6.9h1.1l-0.3,1.2c0.5-0.5,0.9-0.8,1.3-1c0.4-0.2,0.8-0.3,1.2-0.3c0.6,0,1,0.1,1.3,0.5
			c0.3,0.3,0.5,0.7,0.5,1.2c0,0.3-0.1,0.7-0.2,1.2l-0.9,4.2h-1.2l0.9-4.4c0.1-0.4,0.1-0.7,0.1-0.9c0-0.2-0.1-0.4-0.2-0.6
			c-0.2-0.1-0.4-0.2-0.7-0.2c-0.6,0-1.1,0.2-1.6,0.6c-0.5,0.4-0.8,1.2-1,2.2l-0.7,3.2L34.4,417.9L34.4,417.9z"/>
		<path fill="#FFFFFF" d="M42,418.5l1.2,0.1c0,0.3,0,0.5,0.1,0.6c0.1,0.1,0.2,0.2,0.3,0.3c0.2,0.1,0.5,0.1,0.8,0.1
			c0.7,0,1.2-0.2,1.5-0.5c0.2-0.2,0.4-0.8,0.6-1.6l0.1-0.6c-0.6,0.6-1.3,0.9-1.9,0.9c-0.7,0-1.3-0.3-1.7-0.8
			c-0.5-0.5-0.7-1.2-0.7-2.2c0-0.8,0.2-1.5,0.6-2.1c0.4-0.6,0.8-1.1,1.3-1.5c0.5-0.3,1-0.5,1.6-0.5c0.9,0,1.6,0.4,2.1,1.3L48,411H49
			l-1.4,6.6c-0.2,0.7-0.3,1.3-0.6,1.7c-0.2,0.4-0.6,0.7-1,0.9c-0.4,0.2-0.9,0.3-1.5,0.3c-0.6,0-1-0.1-1.4-0.2
			c-0.4-0.1-0.7-0.3-0.9-0.6c-0.2-0.3-0.3-0.6-0.3-0.9C41.9,418.7,41.9,418.6,42,418.5z M43.4,414.8c0,0.5,0,0.8,0.1,1.1
			c0.1,0.3,0.3,0.6,0.5,0.8c0.2,0.2,0.5,0.3,0.8,0.3c0.4,0,0.8-0.1,1.1-0.4c0.4-0.3,0.7-0.7,0.9-1.3c0.2-0.6,0.4-1.1,0.4-1.6
			c0-0.6-0.2-1-0.5-1.3c-0.3-0.3-0.7-0.5-1.2-0.5c-0.3,0-0.6,0.1-0.8,0.2c-0.3,0.2-0.5,0.4-0.7,0.7c-0.2,0.3-0.4,0.7-0.5,1.1
			C43.5,414.3,43.4,414.6,43.4,414.8z"/>
		<path fill="#FFFFFF" d="M50,417.9l0.3-1.3h1.3l-0.3,1.3H50z"/>
	</g>
</g>
<path fill="#FFFFFF" d="M-139.8,377.9c-10.2-10.2-26.9-10.2-37.1,0c-10.2,10.2-10.2,26.9,0,37.1c10.2,10.2,26.9,10.2,37.1,0
	C-129.5,404.8-129.5,388.2-139.8,377.9z"/>
<g>
	<path fill="#2A3052" d="M-166.6,404.3c0,0,0.3,2.5,2.5,3.7l-0.6-1.1C-164.7,406.9-163.6,404.1-166.6,404.3z"/>
	<path fill="#2A3052" d="M-138.9,377.1c-10.7-10.7-28.1-10.7-38.8,0c-10.7,10.7-10.7,28.1,0,38.8c10.7,10.7,28.1,10.7,38.8,0
		C-128.2,405.2-128.2,387.8-138.9,377.1z M-141.8,413.1c-0.3,0.3-0.6,0.6-0.9,0.9c-6.6,5.4-11.7,2.7-11.7,2.7
		c-3.4-0.7-5.2-0.7-6.1-1.3c-0.2-0.2-1-0.6-1.2-0.5c-0.7,0.4-1.7,0.6-2.7-0.2c-0.1-0.1-0.2-0.2-0.2-0.2c-1.1-1.1-0.7-2.2-0.4-2.6
		c0.3-0.3-0.2-1-0.2-1s-1.3-1.9-2.2-3.1c-1-1.3-1.1-3.8-1.1-3.8l0,0c-1-1.2-1.1-1.5-1.4-2.1c-0.2-0.3-0.5-0.7-0.8-0.9
		c-0.2-0.2-0.3-0.3-0.5-0.5c0,0,0-0.1,0-0.2c0.1-0.5,1.3-1.7,1.5-1.9c0.3-0.2,1.6-1,1.6-1s0.8-1.2,2-1.2c1.2,0,1.9-0.1,3.8,0.6
		l0.8,0.3c1.4,0.4,2.6,1,3.6,1.4c0.8,0.4,1.5,0.6,2,0.8c1.7,0.5,4.7-0.9,5.4-1.5c1-1,1.5-1.6,1.5-2.1c0-0.3-0.1-0.5-0.4-0.9
		c-0.2-0.1-0.4-0.4-0.6-0.7c0,0-0.1-0.1-0.1-0.1c-2.9-3.1-2.4-5-2.4-5c0.1-1.4-0.7-2.3-1.5-3.2l-0.1-0.2c0,0-0.1-0.1-0.1-0.1
		c1.2,0.2,2.1,0.7,4.5,1c1.4,0.1,0.9,0.1,2,0.1c1.5,0,2.7-0.2,2.8-0.5c-0.1-0.1-0.8,0-4-1.2c-1.5-0.6-1.7-0.7-2.7-1
		c-1.2-0.4-2.5-1-2.5-1c5.2,1.4,6.9,1.9,9.3,1.9c0.9,0,1.5-0.1,1.8-0.2c0.3-0.1,1.4-0.3,1.5-0.7c0-0.1-1,0.2-3-0.5
		c-6.1-2-6.6-3-10-4.3c-1.2-0.5-1.6-0.7-5.1-1.6c-1.6-0.4-4.1-0.2-4.4,0c-4.6-1.1-5.7-1-7-0.7c9.1-5.8,21.3-4.8,29.2,3.2
		c1.1,1.1,2,2.2,2.9,3.5l0.1,0.2c2.5,3.8,3.9,8.3,3.9,12.9C-134.9,402.8-137.3,408.6-141.8,413.1z M-157.1,386.6
		c2.3,0.8,3,3.3,3,3.3c-2.9,0.7-2.3-2.3-2.3-2.3L-157.1,386.6z"/>
</g>
</svg>
